<svg width="205" height="77" viewBox="0 0 205 77" fill="none" xmlns="http://www.w3.org/2000/svg">
<rect x="1.5" y="1.5" width="202" height="74" fill="#FFD346" stroke="#213E40" stroke-width="3"/>
<path d="M27.2074 16.7471H24.9971V13.8304H32.6647V16.7471H30.2721V31.1139H26.4668L19.0384 18.3763V28.0833H21.1917V31H13.6722V28.0833H15.985V16.7471H13.6722V13.8304H20.8841L27.2074 24.5628V16.7471ZM45.7214 19.265V16.7471H40.4007V20.6891H44.696V23.583H40.4007V28.0833H45.7214V25.5426H49.014V31H33.8724V28.0833H35.946V16.7471H33.8724V13.8304H49.014V19.265H45.7214ZM55.8613 16.7471L58.6413 24.9844L61.2731 16.7471H59.6895V13.8304H65.876V16.7471H64.2923L67.1064 24.9844L69.818 16.7471H68.0863V13.8304H74.9792V16.7471H73.1107L68.3483 31.0911H65.1696L62.4694 23.2526L59.9059 31.0911H56.6133L51.7142 16.7471H49.8913V13.8304H57.6387V16.7471H55.8613ZM83.4102 15.2546V13.8304H86.3268V19.0257H83.4102C83.2886 18.1902 83.0152 17.5636 82.5898 17.1458C82.1721 16.7205 81.629 16.5078 80.9606 16.5078C80.4897 16.5078 80.0871 16.6407 79.7529 16.9066C79.4187 17.1724 79.2516 17.5066 79.2516 17.9092C79.2516 18.2662 79.358 18.5738 79.5706 18.832C79.7833 19.0903 80.0568 19.3105 80.391 19.4928C80.7252 19.6675 81.2265 19.903 81.8949 20.1992L82.5898 20.4954C84.1013 21.1487 85.2407 21.9158 86.0078 22.7969C86.7826 23.678 87.1699 24.7793 87.1699 26.1009C87.1699 27.6732 86.718 28.9188 85.8141 29.8379C84.9103 30.7493 83.695 31.2051 82.1683 31.2051C80.6796 31.2051 79.5213 30.6468 78.6934 29.5303V31H75.7767V25.1667H78.6934C78.7541 26.1769 79.0124 26.9478 79.4681 27.4795C79.9314 28.0036 80.5543 28.2656 81.3366 28.2656C81.8607 28.2656 82.3012 28.0871 82.6582 27.7301C83.0228 27.3732 83.2051 26.9402 83.2051 26.4313C83.2051 25.9148 82.9962 25.4439 82.5785 25.0186C82.1683 24.5856 81.4657 24.1527 80.4707 23.7197C78.7769 22.9754 77.5464 22.174 76.7793 21.3158C76.0198 20.4575 75.64 19.4701 75.64 18.3535C75.64 17.48 75.8413 16.6825 76.2438 15.9609C76.6464 15.2394 77.2008 14.6735 77.9072 14.2633C78.6212 13.8456 79.3959 13.6367 80.2314 13.6367C80.8999 13.6367 81.5075 13.7734 82.0544 14.0469C82.6012 14.3203 83.0532 14.7229 83.4102 15.2546ZM95.0654 16.7471V28.0833H100.135V22.7855H103.496V31H88.1383V28.0833H90.5879V16.7471H88.1383V13.8304H97.5833V16.7471H95.0654ZM116.473 19.265V16.7471H111.153V20.6891H115.448V23.583H111.153V28.0833H116.473V25.5426H119.766V31H104.624V28.0833H106.698V16.7471H104.624V13.8304H119.766V19.265H116.473ZM134.11 20.7347V16.7471H131.444V28.0833H134.007V31H124.38V28.0833H126.989V16.7471H124.38V20.7347H121.464V13.8304H137.004V20.7347H134.11ZM151.245 20.7347V16.7471H148.579V28.0833H151.143V31H141.516V28.0833H144.125V16.7471H141.516V20.7347H138.599V13.8304H154.139V20.7347H151.245ZM167.629 19.265V16.7471H162.308V20.6891H166.604V23.583H162.308V28.0833H167.629V25.5426H170.922V31H155.78V28.0833H157.854V16.7471H155.78V13.8304H170.922V19.265H167.629ZM188.273 18.513C188.273 19.5612 188.027 20.4423 187.533 21.1562C187.047 21.8702 186.306 22.4513 185.311 22.8994L188.08 28.0833H190.301V31H185.072L181.198 23.4919H179.239V28.0833H181.392V31H172.403V28.0833H174.761V16.7471H172.403V13.8304H182.201C184.1 13.8304 185.585 14.233 186.656 15.0381C187.734 15.8356 188.273 16.9939 188.273 18.513ZM183.602 18.7067C183.602 18.0535 183.393 17.5636 182.976 17.237C182.558 16.9104 181.988 16.7471 181.267 16.7471H179.239V20.7347H180.879C182.695 20.7347 183.602 20.0587 183.602 18.7067ZM21.7272 43.2546V41.8304H24.6439V47.0257H21.7272C21.6057 46.1902 21.3322 45.5636 20.9069 45.1458C20.4891 44.7205 19.9461 44.5078 19.2777 44.5078C18.8067 44.5078 18.4042 44.6407 18.07 44.9066C17.7358 45.1724 17.5687 45.5066 17.5687 45.9092C17.5687 46.2662 17.675 46.5738 17.8877 46.832C18.1004 47.0903 18.3738 47.3105 18.708 47.4928C19.0422 47.6675 19.5435 47.903 20.2119 48.1992L20.9069 48.4954C22.4184 49.1487 23.5577 49.9158 24.3249 50.7969C25.0996 51.678 25.487 52.7793 25.487 54.1009C25.487 55.6732 25.035 56.9188 24.1312 57.8379C23.2273 58.7493 22.012 59.2051 20.4854 59.2051C18.9966 59.2051 17.8383 58.6468 17.0104 57.5303V59H14.0938V53.1667H17.0104C17.0712 54.1769 17.3294 54.9478 17.7852 55.4795C18.2485 56.0036 18.8713 56.2656 19.6536 56.2656C20.1777 56.2656 20.6183 56.0871 20.9753 55.7301C21.3398 55.3732 21.5221 54.9402 21.5221 54.4313C21.5221 53.9148 21.3133 53.4439 20.8955 53.0186C20.4854 52.5856 19.7828 52.1527 18.7878 51.7197C17.094 50.9754 15.8635 50.174 15.0964 49.3158C14.3368 48.4575 13.957 47.4701 13.957 46.3535C13.957 45.48 14.1583 44.6825 14.5609 43.9609C14.9634 43.2394 15.5179 42.6735 16.2243 42.2633C16.9383 41.8456 17.713 41.6367 18.5485 41.6367C19.2169 41.6367 19.8245 41.7734 20.3714 42.0469C20.9183 42.3203 21.3702 42.7229 21.7272 43.2546ZM33.3825 44.7471V56.0833H36.0257V59H26.3187V56.0833H28.9049V44.7471H26.3187V41.8304H36.0257V44.7471H33.3825ZM51.4635 43.2318V41.8304H54.3802V47.9144H51.4635C51.1066 46.9042 50.4951 46.0991 49.6292 45.499C48.7709 44.899 47.8139 44.599 46.7581 44.599C45.7783 44.599 44.9086 44.8268 44.1491 45.2826C43.3971 45.7307 42.8161 46.3687 42.4059 47.1966C41.9958 48.0169 41.7907 48.974 41.7907 50.0677C41.7907 51.9286 42.2388 53.3983 43.1351 54.4769C44.039 55.5479 45.277 56.0833 46.8493 56.0833C47.8899 56.0833 48.7444 55.8403 49.4128 55.3542C50.0812 54.8605 50.5559 54.1541 50.8369 53.235H47.8063V50.3184H55.8841C55.8841 52.1868 55.5119 53.7857 54.7676 55.1149C54.0308 56.4441 52.9674 57.4581 51.5775 58.1569C50.1951 58.8557 48.5393 59.2051 46.61 59.2051C44.6656 59.2051 42.9642 58.8519 41.5059 58.1455C40.0551 57.4391 38.9386 56.4213 38.1563 55.0921C37.3739 53.7629 36.9827 52.1868 36.9827 50.3639C36.9827 48.6549 37.3777 47.1321 38.1676 45.7952C38.9652 44.4584 40.0551 43.4179 41.4375 42.6735C42.8199 41.9215 44.3808 41.5456 46.1201 41.5456C48.414 41.5456 50.1951 42.1076 51.4635 43.2318ZM70.7295 44.7471H68.5192V41.8304H76.1869V44.7471H73.7943V59.1139H69.9889L62.5605 46.3763V56.0833H64.7139V59H57.1943V56.0833H59.5072V44.7471H57.1943V41.8304H64.4063L70.7295 52.5628V44.7471ZM83.5013 44.7471V52.7679C83.5013 53.7173 83.5887 54.4503 83.7633 54.9668C83.9456 55.4757 84.1963 55.8289 84.5153 56.0264C84.8343 56.2163 85.2521 56.3112 85.7686 56.3112C86.5585 56.3112 87.1433 56.0416 87.5231 55.5023C87.9105 54.9554 88.1042 53.9984 88.1042 52.6312V44.7471H86.4408V41.8304H93.2995V44.7471H91.2031V53.4515C91.2031 55.4567 90.7474 56.9188 89.8359 57.8379C88.9321 58.7493 87.4206 59.2051 85.3014 59.2051C83.7899 59.2051 82.5822 59.0038 81.6784 58.6012C80.7821 58.1987 80.1175 57.5227 79.6846 56.5732C79.2592 55.6238 79.0466 54.325 79.0466 52.6768V44.7471H77.0186V41.8304H85.2103V44.7471H83.5013ZM110.093 47.2878C110.093 49.1562 109.508 50.5348 108.339 51.4235C107.176 52.3046 105.365 52.7451 102.904 52.7451H101.104V56.0833H103.508V59H94.4616V56.0833H96.6263V44.7471H94.4616V41.8304H102.813C105.266 41.8304 107.093 42.2785 108.293 43.1748C109.493 44.0635 110.093 45.4345 110.093 47.2878ZM105.376 47.2878C105.376 46.5738 105.232 46.0307 104.943 45.6585C104.655 45.2788 104.237 45.0319 103.69 44.918C103.151 44.804 102.524 44.7471 101.81 44.7471H101.104V49.8968H101.81C102.76 49.8968 103.493 49.8019 104.009 49.612C104.533 49.4145 104.89 49.1297 105.08 48.7575C105.278 48.3853 105.376 47.8954 105.376 47.2878Z" fill="#213E40"/>
<path d="M192.061 52.0607C192.646 51.4749 192.646 50.5251 192.061 49.9393L182.515 40.3934C181.929 39.8076 180.979 39.8076 180.393 40.3934C179.808 40.9792 179.808 41.9289 180.393 42.5147L188.879 51L180.393 59.4853C179.808 60.0711 179.808 61.0208 180.393 61.6066C180.979 62.1924 181.929 62.1924 182.515 61.6066L192.061 52.0607ZM119 52.5L191 52.5L191 49.5L119 49.5L119 52.5Z" fill="#213E40"/>
</svg>
