<svg width="93" height="111" viewBox="0 0 93 111" fill="none" xmlns="http://www.w3.org/2000/svg">
<path d="M26.7401 46.5955C26.7401 46.5955 22.034 66.8142 18.7348 81.1814C17.3777 87.0952 6.07319 88.9004 3.04786 91.4526C0.0225228 94.0049 -2.74136 97.3539 5.13945 96.3953C13.0203 95.4366 20.6521 93.8555 22.4698 89.635C24.2875 85.4144 28.869 47.5168 28.869 47.5168L26.7401 46.5955Z" fill="white"/>
<path d="M28.9437 46.1224C28.9437 46.1224 21.0504 52.9325 22.1958 66.6275C22.1958 66.6275 8.50089 72.2673 15.2861 87.5807C18.8094 95.5362 28.8441 96.5571 43.8836 96.5571C58.9231 96.5571 66.8164 93.5691 69.0449 74.1099C71.2735 54.6506 62.5959 41.7276 62.5959 41.7276L28.9312 46.1224H28.9437Z" fill="#F0B0AC"/>
<path d="M27.3252 110.974H25.2087C23.4284 110.974 21.9717 110.289 21.1749 109.156C20.3408 108.024 20.1665 106.455 20.3781 104.687C20.9259 100.23 20.4279 95.6856 18.8841 91.4029C23.8143 91.4029 28.7445 91.4029 33.6622 91.4029C32.1184 95.6856 31.6204 100.23 32.1682 104.687C32.3674 106.455 32.1931 108.036 31.3714 109.156C30.5622 110.289 29.1055 110.974 27.3376 110.974H27.3252Z" fill="#F0B0AC"/>
<path d="M46.6102 110.974H44.4937C42.7133 110.974 41.2567 110.289 40.4599 109.156C39.6257 108.023 39.4514 106.455 39.6631 104.687C40.2109 100.23 39.7129 95.6856 38.1691 91.4028C43.0993 91.4028 48.0294 91.4028 52.9472 91.4028C51.4034 95.6856 50.9054 100.23 51.4532 104.687C51.6524 106.455 51.4781 108.036 50.6564 109.156C49.8471 110.289 48.3905 110.974 46.6226 110.974H46.6102Z" fill="#F0B0AC"/>
<path d="M23.9762 42.2878C24.0011 40.246 24.885 38.3163 26.4039 36.6356C26.5035 31.5933 29.1305 27.1114 33.1767 24.1981C31.8445 23.1025 30.5622 20.7992 29.3546 16.3795C27.0887 8.08785 27.3875 0.779737 30.0144 0.0576402C32.6413 -0.664456 36.6129 5.48582 38.8788 13.7775C39.8125 17.1888 40.0615 19.5418 39.8623 21.1852C41.2692 20.8615 42.7382 20.6872 44.2571 20.6872C45.776 20.6872 47.2451 20.8615 48.652 21.1852C48.4403 19.5418 48.7018 17.1888 49.6355 13.7775C51.9014 5.48582 55.8729 -0.652006 58.4999 0.0576402C61.1268 0.779737 61.4256 8.08785 59.1597 16.3795C57.9521 20.7992 56.6697 23.1025 55.3376 24.1981C59.3838 27.1114 62.0107 31.5933 62.1104 36.6356C63.6417 38.3163 64.5132 40.246 64.5381 42.2878C66.5799 46.0228 72.5309 67.6608 72.5309 83.0738C72.5309 88.9876 93.3473 90.6932 92.3637 92.8719C89.4504 99.2961 67.7502 96.7563 67.8373 83.8457C67.9245 70.9351 65.559 50.8409 62.9694 46.6329C59.9067 50.1811 52.6733 51.6004 44.2447 51.6004C35.8161 51.6004 28.5951 50.1811 25.52 46.6329C25.52 46.6329 23.9513 45.4252 23.9513 42.2878H23.9762Z" fill="white"/>
<path d="M53.0717 67.7355C53.0717 75.3673 42.9997 79.3513 35.3679 79.3513C27.7361 79.3513 21.9717 71.4331 27.2256 66.6399C33.0024 61.3611 31.6204 53.9285 39.2523 53.9285C46.8841 53.9285 53.0717 60.1161 53.0717 67.7479V67.7355Z" fill="white"/>
<path d="M46.7845 67.7355C46.7845 71.8938 41.2567 73.6243 37.1109 73.6243C32.9651 73.6243 28.869 70.8978 32.4795 67.3869C35.455 64.4861 35.1064 60.2282 39.2647 60.2282C43.423 60.2282 46.7845 63.5897 46.7845 67.7479V67.7355Z" fill="#5161AC"/>
<path d="M42.788 43.2091C42.788 43.9686 42.1655 44.5911 41.4061 44.5911C40.6466 44.5911 40.0241 43.9686 40.0241 43.2091C40.0241 42.4497 40.6466 42.3874 41.4061 42.3874C42.1655 42.3874 42.788 42.4497 42.788 43.2091Z" fill="#F0B0AC"/>
<path d="M50.3451 41.7276C51.1427 41.7276 51.7893 41.081 51.7893 40.2834C51.7893 39.4858 51.1427 38.8392 50.3451 38.8392C49.5475 38.8392 48.9009 39.4858 48.9009 40.2834C48.9009 41.081 49.5475 41.7276 50.3451 41.7276Z" fill="#5161AC"/>
<path d="M32.4794 41.7276C33.2771 41.7276 33.9236 41.081 33.9236 40.2834C33.9236 39.4858 33.2771 38.8392 32.4794 38.8392C31.6818 38.8392 31.0352 39.4858 31.0352 40.2834C31.0352 41.081 31.6818 41.7276 32.4794 41.7276Z" fill="#5161AC"/>
<path d="M56.1717 25.7917C56.1593 25.1069 52.001 24.3102 52.0134 25.0073C51.8018 24.9326 51.5901 25.0447 51.3909 24.8206C51.3785 23.9491 47.4318 23.1399 47.4318 23.1648C46.0499 23.2146 45.3278 22.1065 45.7636 19.7659C45.7636 20.1519 45.9752 17.6992 46.0001 19.0812C46.4732 17.388 48.0294 17.2261 49.5234 17.4378C49.4861 15.7072 51.5652 18.4711 53.5821 18.6579C55.5866 18.3964 57.6284 19.5294 57.6408 19.878C59.222 20.488 60.1183 22.4302 59.6079 23.3889C59.583 22.2684 59.3838 24.7832 59.3713 24.0612C58.9107 24.4471 57.5785 26.3395 56.1717 25.7792V25.7917Z" fill="#FCB866"/>
<path d="M32.4422 25.7917C32.4546 25.1069 36.6129 24.3102 36.6005 25.0073C36.8121 24.9326 37.0238 25.0447 37.223 24.8206C37.2354 23.9491 41.182 23.1399 41.182 23.1648C42.564 23.2146 43.2861 22.1065 42.8503 19.7659C42.8503 20.1519 42.6387 17.6992 42.6138 19.0812C42.1407 17.388 40.5844 17.2261 39.0904 17.4378C39.1278 15.7072 37.0487 18.4711 35.0318 18.6579C33.0273 18.3964 30.9855 19.5294 30.9731 19.878C29.392 20.488 28.4956 22.4302 29.006 23.3889C29.0309 22.2684 29.2301 24.7832 29.2426 24.0612C29.7032 24.4471 31.0353 26.3395 32.4422 25.7792V25.7917Z" fill="#FCB866"/>
<g style="mix-blend-mode:multiply">
<path d="M22.1958 66.6275C27.9602 62.3821 36.2643 60.9254 42.788 64.2371C41.5181 63.9383 40.1611 63.652 38.8663 63.4777C33.1393 62.8925 27.3875 64.2496 22.1958 66.6275Z" fill="#D88B8B"/>
</g>
</svg>
