<svg width="368" height="191" viewBox="0 0 368 191" fill="none" xmlns="http://www.w3.org/2000/svg">
<g clip-path="url(#clip0_1_28)">
<path d="M196.611 187.616C297.997 173.774 374.546 121.302 367.588 70.4167C360.631 19.531 272.801 -10.4994 171.415 3.34206C70.0296 17.1835 -6.51944 69.6552 0.438289 120.541C7.39602 171.427 95.2257 201.457 196.611 187.616Z" fill="#5060AB"/>
<path d="M47.1897 41.5338C49.197 37.6432 51.6197 34.5481 54.4749 32.2483C55.9804 31.0552 57.5032 30.3636 59.0433 30.1734C59.424 30.208 60.047 30.3636 60.8949 30.6403C61.7429 30.9169 62.4004 31.038 62.8504 31.038H84.7407C85.0522 31.038 85.6578 30.8305 86.5577 30.4328C87.4575 30.0351 88.4785 29.8794 89.586 30.0005C92.0432 30.2253 93.8429 32.0927 94.9504 35.6029C95.4176 37.0726 95.6772 38.5943 95.7637 40.2196C95.833 41.7932 95.7464 43.1938 95.4696 44.4387C94.9677 46.7904 94.1025 48.7097 92.8739 50.214C91.3684 52.0642 89.5514 52.9115 87.3883 52.7559C84.931 52.5657 83.2179 51.2861 82.2488 48.9518C81.972 48.1045 81.7124 47.2572 81.4355 46.4099C81.0548 45.3033 80.6395 44.5771 80.2242 44.2831C80.0338 44.4387 79.8954 44.6116 79.8262 44.8018L74.3406 70.4795C74.0637 71.7417 74.3233 72.6755 75.0847 73.2461C75.5519 73.4709 76.2268 74.0415 77.1094 74.9233C77.3862 75.3902 77.5939 76.0473 77.7496 76.8773C77.9054 78.0012 77.8708 79.2116 77.6285 80.5084C77.1613 83.0503 75.3443 84.814 72.1775 85.8169C68.9935 86.8198 64.9442 87.3039 60.0124 87.2521C53.5059 87.2175 49.3701 85.9379 47.605 83.448C46.9474 82.5661 46.7398 81.5113 46.9647 80.2664C47.5012 77.3787 48.4529 75.4421 49.8027 74.4392C50.5641 74.0588 51.81 73.2461 53.5059 72.0184C54.9768 70.5486 56.1189 67.7993 56.9668 63.7704L60.6008 46.6866C60.7219 46.1506 60.7911 45.701 60.8257 45.3552C60.8257 45.0093 60.8084 44.6981 60.7738 44.4387C60.2027 44.75 59.4067 45.4762 58.4031 46.6347C57.6763 47.482 56.9322 48.3466 56.2054 49.2284C53.9385 51.6838 51.7062 52.9288 49.5085 52.9288C48.1587 52.9288 47.1032 52.4273 46.3244 51.4244C45.5457 50.4215 45.165 49.2284 45.165 47.8451C45.165 46.237 45.8399 44.1275 47.1897 41.5511V41.5338Z" fill="#FFD245"/>
<path d="M60.5142 88.1858C60.3412 88.1858 60.1681 88.1858 59.9951 88.1858C53.1078 88.1512 48.7817 86.7679 46.8089 83.9667C46.0129 82.8773 45.7361 81.5632 46.0129 80.0761C46.6013 76.9118 47.6396 74.8196 49.2143 73.6611C50.0795 73.2115 51.2735 72.4334 52.9175 71.2403C54.1288 70.0126 55.2017 67.4016 56.015 63.5629L59.6144 46.6693C59.4586 46.8422 59.2856 47.0324 59.1125 47.2399C58.3857 48.0872 57.6589 48.9345 56.9322 49.8163C54.4403 52.5138 51.9657 53.8625 49.4912 53.8625C47.8299 53.8625 46.5148 53.24 45.563 51.995C44.6632 50.8365 44.2133 49.4359 44.2133 47.8451C44.2133 46.0641 44.9054 43.8508 46.3417 41.1188C48.401 37.1245 50.9274 33.9083 53.8692 31.5221C55.5132 30.2252 57.209 29.4471 58.9049 29.2396H59.0087H59.1125C59.5625 29.2915 60.2373 29.4471 61.1545 29.7411C62.0889 30.035 62.5735 30.1042 62.833 30.1042H84.7234C84.7234 30.1042 85.0522 30.0696 86.1597 29.5855C87.2152 29.1186 88.3919 28.9457 89.6725 29.084C92.5278 29.3434 94.6043 31.4529 95.8502 35.3435C96.3348 36.8824 96.6289 38.5251 96.6982 40.2023C96.7847 41.845 96.6809 43.3494 96.3867 44.6635C95.8502 47.1535 94.9158 49.2284 93.6006 50.8365C91.9048 52.9288 89.7936 53.9144 87.3191 53.7242C84.4638 53.4994 82.4738 52.0296 81.3663 49.3322L80.5357 46.7212C80.5357 46.7212 80.501 46.6347 80.4837 46.5828L75.2577 70.687C74.9809 72.0011 75.4654 72.3642 75.6558 72.5025C76.0884 72.6927 76.7979 73.2807 77.7842 74.2663L77.94 74.4565C78.2687 75.0271 78.511 75.7533 78.6841 76.7216C78.8571 77.9839 78.8225 79.298 78.5629 80.6986C78.0265 83.6036 75.9845 85.644 72.4544 86.7506C69.3223 87.7362 65.3076 88.2377 60.5315 88.2377L60.5142 88.1858ZM61.5006 42.9344L61.6909 44.2831C61.7428 44.5943 61.7601 44.9402 61.7601 45.3379C61.7082 45.822 61.639 46.2889 61.5006 46.8595L57.8666 63.9433C56.9668 68.197 55.7554 71.0501 54.1461 72.6755C52.2772 74.0415 51.0313 74.8715 50.2007 75.2692C49.197 76.03 48.3664 77.7937 47.8818 80.422C47.6915 81.3903 47.8472 82.1857 48.3491 82.86C49.9411 85.1079 53.8519 86.2492 60.0124 86.2837C64.8058 86.3183 68.8204 85.8515 71.8833 84.8831C74.7213 83.984 76.296 82.4969 76.694 80.3009C76.9017 79.1078 76.9363 77.9839 76.7979 76.9637C76.6594 76.2029 76.4864 75.7187 76.3306 75.4594C75.327 74.4738 74.8597 74.1625 74.6521 74.0588C73.7522 73.419 72.9562 72.3123 73.3888 70.2374L78.8744 44.5598C79.0648 44.0583 79.2897 43.7471 79.6185 43.4877L80.1896 43.0381L80.7779 43.4704C81.3663 43.9027 81.8681 44.7327 82.3353 46.0641L83.1486 48.6232C83.9447 50.5599 85.3636 51.6146 87.4575 51.7702C89.2918 51.9086 90.8319 51.1823 92.1297 49.5742C93.2546 48.1909 94.0679 46.3926 94.5351 44.1966C94.7947 43.0381 94.8812 41.7067 94.812 40.2369C94.7427 38.7153 94.4832 37.2455 94.0506 35.8622C93.0469 32.7325 91.5587 31.1244 89.4994 30.9169C88.5304 30.8132 87.6998 30.9169 86.9384 31.28C85.5713 31.8852 85.0522 31.9717 84.7234 31.9717H62.833C62.262 31.9717 61.5352 31.8333 60.5834 31.5221C59.7355 31.2627 59.2856 31.159 59.026 31.1071C57.7109 31.2973 56.3611 31.9198 55.0459 32.9746C52.3291 35.1879 49.9584 38.1966 48.0203 41.9488C46.757 44.3868 46.0995 46.3581 46.0995 47.8105C46.0995 48.9863 46.4109 49.9719 47.0512 50.8019C47.6396 51.58 48.4183 51.9259 49.4739 51.9259C51.3774 51.9259 53.402 50.7846 55.4786 48.5368C56.1708 47.6895 56.9148 46.8076 57.6589 45.9604C58.7491 44.7154 59.6144 43.92 60.2892 43.5569L61.4833 42.9171L61.5006 42.9344Z" fill="#3A3A3A"/>
<path d="M108.275 31.0898H130.979C136.568 31.0898 140.565 32.6115 142.988 35.6547C144.096 37.038 144.822 38.6288 145.117 40.4444C145.393 42.2946 145.307 44.2139 144.892 46.2197C143.663 52.0296 140.444 56.0239 135.253 58.2199C139.683 59.2574 141.898 63.0096 141.898 69.4766C141.898 70.3584 141.846 71.2921 141.725 72.2432C141.656 73.2115 141.725 73.8513 141.95 74.1971C142.071 74.3527 142.607 74.6812 143.559 75.1827C144.943 75.9089 145.411 77.8456 144.943 80.958C144.718 82.7217 143.369 84.3298 140.894 85.7477C138.195 87.3212 134.803 88.1166 130.736 88.1166C125.268 88.1166 121.807 86.0935 120.336 82.0646C119.679 80.3355 119.367 78.4681 119.419 76.4623C119.454 74.4565 119.523 72.589 119.592 70.8599C119.627 69.0097 119.61 67.782 119.54 67.1595C119.263 65.586 118.571 64.7906 117.464 64.7906C117.395 64.756 117.239 64.7387 116.997 64.7387L115.214 73.2807C115.058 74.0069 115.11 74.5083 115.387 74.785C115.802 75.0617 116.218 75.321 116.598 75.5977C117.481 76.2893 117.931 77.4479 117.931 79.056C117.931 79.8341 117.862 80.7332 117.706 81.7707C117.048 84.3817 114.868 86.1281 111.182 87.0273C109.227 87.4941 106.198 87.7189 102.115 87.7189H99.813C96.9578 87.7189 94.7082 87.4077 93.0642 86.8025C90.3647 85.765 89.2572 84.0704 89.7071 81.7188C90.1224 79.6439 91.0569 78.6064 92.4759 78.6064C92.8219 78.6064 93.2373 78.7101 93.7391 78.9003C94.2755 78.9003 94.7774 78.226 95.2446 76.8772C95.9022 74.9925 96.9405 70.6697 98.3594 63.926L102.063 46.5656C102.339 45.3379 102.253 44.4387 101.838 43.9027C101.215 43.4704 100.367 42.5194 99.2939 41.015C98.9478 40.3234 98.844 39.0092 98.9997 37.0726C99.1554 35.7585 100.021 34.5308 101.595 33.3723C102.409 32.8017 103.36 32.3002 104.485 31.8679C105.835 31.3665 107.098 31.1244 108.292 31.1244L108.275 31.0898ZM122.309 42.1736C121.773 42.2427 121.08 44.0929 120.232 47.7068C119.886 49.0901 119.61 50.3869 119.419 51.58L119.021 53.7069C119.021 53.7069 119.194 53.8279 119.765 53.8279C121.998 53.8279 123.417 52.2544 124.039 49.0901L124.611 46.2024C124.732 45.701 124.801 45.2687 124.835 44.871C124.905 43.1765 124.057 42.2773 122.292 42.1563L122.309 42.1736ZM134.491 58.4966C134.613 58.4966 134.682 58.462 134.716 58.3755C134.716 58.3409 134.63 58.3755 134.491 58.4966Z" fill="#FFD245"/>
<path d="M130.754 89.0504C124.87 89.0504 121.063 86.8025 119.471 82.3586C119.211 81.667 119.004 80.958 118.848 80.2145C118.813 80.7332 118.744 81.2865 118.658 81.8917C117.896 84.9523 115.456 86.9581 111.407 87.9264C109.348 88.4106 106.32 88.6526 102.115 88.6526H99.813C96.8712 88.6526 94.4832 88.3241 92.7181 87.667C88.7554 86.1454 88.3746 83.4825 88.7727 81.5113C89.4302 78.2951 91.1434 77.6208 92.4758 77.6208C92.8565 77.6208 93.2719 77.6899 93.7391 77.8456C93.8083 77.7245 94.0506 77.3614 94.3447 76.5141C94.985 74.664 96.0233 70.3411 97.425 63.6667L101.128 46.3062C101.37 45.2168 101.249 44.7154 101.128 44.5079C100.436 43.9892 99.5707 43.0035 98.5152 41.4992C97.996 40.4963 97.8749 39.0957 98.0479 36.9343C98.2383 35.3262 99.2419 33.8564 101.042 32.5423C101.924 31.9198 102.962 31.3665 104.156 30.9169C105.61 30.3809 107.012 30.1042 108.31 30.1042H131.013C136.879 30.1042 141.171 31.7642 143.767 35.015C144.978 36.5193 145.757 38.283 146.103 40.2369C146.397 42.2081 146.311 44.2658 145.861 46.3581C144.736 51.6665 141.984 55.5743 137.693 58.0297C141.136 59.7934 142.867 63.6148 142.867 69.4074C142.867 70.3238 142.815 71.2922 142.694 72.2951C142.625 73.2115 142.728 73.5227 142.763 73.6092C142.763 73.5746 143.04 73.7821 144.026 74.2836C145.826 75.2346 146.449 77.4479 145.913 81.0445C145.653 83.1021 144.13 84.9523 141.396 86.5258C138.575 88.1858 134.993 89.0158 130.754 89.0158V89.0504ZM117.637 63.8396C118.571 63.8915 120.042 64.3929 120.492 66.9866C120.579 67.6956 120.596 68.9578 120.561 70.8599C120.492 72.6063 120.423 74.4565 120.388 76.4623C120.354 78.3297 120.648 80.0934 121.253 81.7015C122.586 85.3673 125.683 87.1483 130.754 87.1483C134.647 87.1483 137.9 86.3875 140.444 84.9177C142.625 83.6555 143.836 82.2722 144.026 80.8197C144.303 78.9695 144.372 76.6525 143.144 76.0127C141.638 75.2346 141.379 74.9752 141.206 74.7504C140.808 74.1625 140.687 73.3498 140.79 72.1394C140.911 71.1711 140.963 70.2893 140.963 69.442C140.963 63.5456 139.112 60.1738 135.287 59.1709C135.08 59.3266 134.82 59.4303 134.526 59.4303H131.671L132.796 58.583L132.207 58.4447L133.955 57.7012C134.093 57.5974 134.353 57.4072 134.699 57.3899L134.907 57.3035C139.839 55.2285 142.815 51.5109 143.992 45.9777C144.39 44.0929 144.459 42.26 144.217 40.5482C143.94 38.9401 143.282 37.4703 142.279 36.2253C140.046 33.4414 136.257 32.0236 131.013 32.0236H108.31C107.237 32.0236 106.06 32.2483 104.831 32.7152C103.793 33.1129 102.893 33.5798 102.166 34.0985C100.817 35.0841 100.073 36.1043 99.9514 37.1418C99.7784 39.3897 100.003 40.2369 100.142 40.5482C101.319 42.1736 102.011 42.8306 102.374 43.0727L102.582 43.2629C103.187 44.041 103.326 45.165 102.997 46.7039L99.2939 64.0471C97.8403 70.8945 96.8193 75.1654 96.1444 77.1193C95.7464 78.2606 95.0715 79.7822 93.7391 79.7822L93.393 79.713C92.9085 79.5228 92.6143 79.4882 92.4585 79.4882C92.0951 79.4882 91.0915 79.4883 90.6242 81.8399C90.382 83.1021 90.4685 84.7102 93.3757 85.8342C94.9158 86.4048 97.0789 86.6987 99.7957 86.6987H102.097C106.095 86.6987 109.071 86.4739 110.94 86.0244C114.297 85.229 116.2 83.7246 116.754 81.4595C116.875 80.5603 116.962 79.6957 116.962 78.9695C116.962 77.6727 116.633 76.7562 115.993 76.2548C115.664 76.03 115.266 75.7533 114.851 75.4939L114.695 75.3729C113.916 74.6121 114.176 73.4017 114.262 73.004L116.218 63.7013H116.996C117.239 63.7013 117.446 63.7186 117.619 63.7704L117.637 63.8396ZM116.097 74.0933C116.46 74.3354 116.823 74.5602 117.152 74.8023C117.758 75.2692 118.191 75.8744 118.485 76.6179C118.485 76.5487 118.485 76.4968 118.485 76.4277C118.519 74.4219 118.589 72.5371 118.658 70.808C118.71 68.5947 118.658 67.661 118.606 67.2806C118.415 66.1739 118.052 65.8627 117.758 65.7762L116.149 73.4709C116.079 73.8167 116.079 74.0069 116.097 74.0933ZM119.783 54.7789C119.142 54.7789 118.415 54.7789 118.139 54.1046L117.896 53.5167L118.156 53.2573L118.502 51.4071C118.692 50.2313 118.969 48.8999 119.315 47.482C120.509 42.3811 121.219 41.3782 122.188 41.2398H122.292H122.396C124.68 41.3955 125.926 42.7442 125.822 44.9402C125.77 45.407 125.701 45.8912 125.562 46.4445L124.991 49.2976C124.109 53.8452 121.669 54.7962 119.783 54.7962V54.7789ZM122.638 43.1592C122.413 43.5396 121.928 44.6808 121.167 47.9316C120.821 49.2976 120.561 50.5771 120.371 51.7357L120.163 52.8596C121.219 52.7559 122.499 52.0815 123.122 48.9172L123.693 46.0295C123.797 45.5454 123.866 45.1477 123.901 44.8018C123.936 43.9546 123.728 43.3494 122.62 43.1765L122.638 43.1592Z" fill="#3A3A3A"/>
<path d="M186.007 37.7297C185.159 40.5828 183.827 42.7269 182.027 44.1966C181.058 44.9748 180.383 45.6491 180.003 46.237C179.622 46.8422 179.31 47.7241 179.085 48.9172L174.413 70.9117C174.223 71.7936 174.24 72.4334 174.465 72.8138C174.534 72.9348 174.984 73.3325 175.798 74.0242C176.213 74.4046 176.542 75.0444 176.784 75.9262C177.355 77.8801 177.199 79.7995 176.299 81.6324C175.4 83.4825 174.015 84.7794 172.164 85.5575C169.499 86.6296 165.951 87.2002 161.487 87.2348C155.741 87.2693 151.658 86.3529 149.183 84.4681C148.301 83.7765 147.851 82.8946 147.851 81.8053C147.851 81.5286 147.885 81.252 147.972 80.9407C148.854 77.8974 149.91 75.6669 151.156 74.249C151.467 73.9031 152.159 73.2807 153.232 72.3988C154.08 71.7417 154.721 70.9982 155.17 70.1509C155.62 69.3037 155.966 68.3008 156.243 67.1422L160.518 47.1189C160.673 46.237 160.639 45.5627 160.396 45.0958C160.275 44.871 159.843 44.3868 159.064 43.6433C158.147 42.7615 157.68 41.4819 157.68 39.8392C157.68 39.2167 157.732 38.4905 157.853 37.6432C158.354 35.4472 160.085 33.7527 163.044 32.5596C165.709 31.4875 169.256 30.9688 173.721 31.0034C182.045 31.0379 186.198 32.8362 186.198 36.3637C186.198 36.796 186.146 37.2282 186.025 37.6951L186.007 37.7297Z" fill="#FFD245"/>
<path d="M161.123 88.1858C155.292 88.1858 151.19 87.2175 148.577 85.2117C147.47 84.3471 146.882 83.1713 146.882 81.8053C146.882 81.4594 146.933 81.079 147.02 80.6986C147.954 77.4651 149.062 75.1654 150.394 73.6092C150.758 73.2115 151.45 72.589 152.592 71.6553C153.353 71.0674 153.907 70.4103 154.288 69.7013C154.686 68.9232 155.015 67.9895 155.274 66.9174L159.549 46.9114C159.704 46.0295 159.583 45.6318 159.514 45.5108C159.514 45.4762 159.324 45.2168 158.389 44.335C157.264 43.2629 156.711 41.7586 156.711 39.8392C156.711 39.1822 156.762 38.4213 156.884 37.5222C157.472 34.9285 159.41 32.9919 162.663 31.695C165.415 30.5711 169.135 30.0177 173.704 30.0696C177.026 30.0696 187.115 30.1215 187.115 36.381C187.115 36.8824 187.046 37.4011 186.907 37.9372V37.9718C185.99 40.9977 184.554 43.3321 182.598 44.9056C181.716 45.6145 181.11 46.2197 180.781 46.7212C180.47 47.2226 180.193 48.0007 179.985 49.0728L175.313 71.0847C175.105 72.0357 175.244 72.295 175.261 72.295C175.226 72.2432 175.417 72.4507 176.386 73.2807C176.974 73.8167 177.39 74.5948 177.666 75.6668C178.307 77.8283 178.116 79.9724 177.113 82.0301C176.109 84.0877 174.552 85.5575 172.492 86.4221C169.724 87.546 166.02 88.1339 161.452 88.1685C161.331 88.1685 161.227 88.1685 161.106 88.1685L161.123 88.1858ZM173.254 31.9717C169.135 31.9717 165.813 32.4731 163.373 33.4587C160.691 34.5308 159.168 35.9833 158.735 37.868C158.649 38.5942 158.579 39.2859 158.579 39.8565C158.579 41.2571 158.943 42.2773 159.67 42.9862C160.794 44.041 161.054 44.4387 161.192 44.6981C161.521 45.3552 161.59 46.2024 161.4 47.3091L157.126 67.367C156.832 68.612 156.451 69.7013 155.966 70.6178C155.465 71.5861 154.721 72.4507 153.769 73.1769C152.506 74.2144 152.004 74.6985 151.813 74.906C150.689 76.2029 149.685 78.347 148.837 81.2347C148.785 81.4249 148.75 81.6324 148.75 81.8399C148.75 82.6353 149.062 83.2405 149.719 83.7419C151.986 85.4883 155.932 86.3702 161.435 86.3183C165.761 86.2837 169.239 85.7477 171.766 84.7102C173.392 84.0359 174.586 82.8946 175.4 81.252C176.196 79.6093 176.351 77.9666 175.832 76.2202C175.59 75.321 175.313 74.9233 175.123 74.7504C173.929 73.7302 173.756 73.5227 173.634 73.3671C173.254 72.7273 173.185 71.8801 173.444 70.7388L178.116 48.7615C178.376 47.4474 178.722 46.4618 179.172 45.7529C179.605 45.0612 180.349 44.3177 181.404 43.4704C183.048 42.139 184.277 40.1332 185.073 37.5049C185.159 37.1245 185.211 36.7614 185.211 36.4328C185.211 33.5452 181.335 32.0581 173.686 32.0235C173.531 32.0235 173.392 32.0235 173.254 32.0235V31.9717Z" fill="#3A3A3A"/>
<path d="M187.565 41.5338C189.572 37.6432 191.995 34.5481 194.85 32.2483C196.355 31.0552 197.878 30.3636 199.418 30.1734C199.799 30.208 200.422 30.3636 201.27 30.6403C202.118 30.9169 202.775 31.038 203.225 31.038H225.116C225.427 31.038 226.033 30.8305 226.933 30.4328C227.833 30.0351 228.854 29.8794 229.961 30.0005C232.418 30.2253 234.218 32.0927 235.325 35.6029C235.793 37.0726 236.052 38.5943 236.139 40.2196C236.208 41.7932 236.121 43.1938 235.845 44.4387C235.343 46.7904 234.478 48.7097 233.249 50.214C231.743 52.0642 229.926 52.9115 227.763 52.7559C225.306 52.5657 223.593 51.2861 222.624 48.9518C222.347 48.1045 222.087 47.2572 221.811 46.4099C221.43 45.3033 221.015 44.5771 220.599 44.2831C220.409 44.4387 220.27 44.6116 220.201 44.8018L214.716 70.4795C214.439 71.7417 214.698 72.6755 215.46 73.2461C215.927 73.4709 216.602 74.0415 217.484 74.9233C217.761 75.3902 217.969 76.0473 218.125 76.8773C218.28 78.0012 218.246 79.2116 218.004 80.5084C217.536 83.0503 215.719 84.814 212.553 85.8169C209.369 86.8198 205.319 87.3039 200.387 87.2521C193.881 87.2175 189.745 85.9379 187.98 83.448C187.322 82.5661 187.115 81.5113 187.34 80.2664C187.876 77.3787 188.828 75.4421 190.178 74.4392C190.939 74.0588 192.185 73.2461 193.881 72.0184C195.352 70.5486 196.494 67.7993 197.342 63.7704L200.976 46.6866C201.097 46.1506 201.166 45.701 201.201 45.3552C201.201 45.0093 201.183 44.6981 201.149 44.4387C200.578 44.75 199.782 45.4762 198.778 46.6347C198.051 47.482 197.307 48.3466 196.58 49.2284C194.314 51.6838 192.081 52.9288 189.884 52.9288C188.534 52.9288 187.478 52.4273 186.699 51.4244C185.921 50.4215 185.54 49.2284 185.54 47.8451C185.54 46.237 186.215 44.1275 187.565 41.5511V41.5338Z" fill="#FFD245"/>
<path d="M200.907 88.1858C200.734 88.1858 200.56 88.1858 200.387 88.1858C193.5 88.1512 189.174 86.7679 187.201 83.9667C186.405 82.8773 186.128 81.5632 186.405 80.0761C186.994 76.9118 188.032 74.8196 189.607 73.6611C190.472 73.2115 191.666 72.4334 193.31 71.2403C194.521 70.0126 195.594 67.4016 196.407 63.5629L200.007 46.6693C199.851 46.8422 199.678 47.0324 199.505 47.2399C198.778 48.0872 198.051 48.9345 197.325 49.8163C194.833 52.5138 192.358 53.8625 189.884 53.8625C188.222 53.8625 186.907 53.24 185.955 51.995C185.056 50.8365 184.606 49.4359 184.606 47.8451C184.606 46.0641 185.298 43.8508 186.734 41.1188C188.793 37.1418 191.32 33.9083 194.262 31.5221C195.906 30.2252 197.601 29.4471 199.297 29.2396H199.401H199.505C199.955 29.2915 200.63 29.4471 201.547 29.7411C202.481 30.035 202.966 30.1042 203.225 30.1042H225.116C225.116 30.1042 225.445 30.0696 226.552 29.5855C227.608 29.1186 228.784 28.9457 230.065 29.084C232.92 29.3434 234.997 31.4529 236.243 35.3435C236.727 36.8824 237.021 38.5251 237.091 40.2023C237.177 41.845 237.073 43.3494 236.779 44.6635C236.243 47.1535 235.308 49.2284 233.993 50.8365C232.297 52.9288 230.186 53.9144 227.694 53.7242C224.839 53.4994 222.849 52.0296 221.741 49.3322L220.911 46.7212C220.911 46.7212 220.876 46.6347 220.859 46.5828L215.633 70.687C215.356 72.0011 215.84 72.3642 216.031 72.5025C216.463 72.6927 217.173 73.2807 218.159 74.2663L218.315 74.4565C218.644 75.0271 218.886 75.7533 219.059 76.7216C219.232 77.9839 219.198 79.298 218.938 80.6986C218.402 83.6036 216.36 85.644 212.829 86.7506C209.697 87.7362 205.683 88.2377 200.907 88.2377V88.1858ZM201.893 42.9344L202.083 44.2831C202.135 44.5943 202.153 44.9402 202.153 45.3379C202.101 45.8047 202.031 46.2889 201.893 46.8595L198.259 63.9433C197.359 68.197 196.148 71.0501 194.538 72.6755C192.67 74.0415 191.424 74.8715 190.593 75.2692C189.589 76.03 188.759 77.7937 188.274 80.422C188.084 81.3903 188.24 82.1857 188.741 82.86C190.333 85.1079 194.244 86.2492 200.405 86.2837C205.198 86.3183 209.213 85.8515 212.276 84.8831C215.114 83.984 216.688 82.4969 217.086 80.3009C217.294 79.1078 217.329 77.9839 217.19 76.9637C217.052 76.2029 216.879 75.7187 216.723 75.4594C215.719 74.4738 215.252 74.1625 215.044 74.0588C214.145 73.419 213.349 72.3123 213.781 70.2374L219.267 44.5598C219.457 44.0583 219.682 43.7471 220.011 43.4877L220.582 43.0381L221.17 43.4704C221.759 43.9027 222.26 44.7327 222.728 46.0641L223.541 48.6232C224.337 50.5599 225.756 51.6146 227.85 51.7702C229.684 51.9086 231.224 51.1823 232.522 49.5742C233.647 48.1909 234.46 46.3926 234.927 44.1966C235.187 43.0381 235.274 41.7067 235.204 40.2369C235.135 38.7153 234.876 37.2455 234.443 35.8622C233.439 32.7325 231.951 31.1244 229.892 30.9169C228.923 30.8132 228.092 30.9169 227.331 31.28C225.964 31.8852 225.445 31.9717 225.116 31.9717H203.225C202.654 31.9717 201.928 31.8333 200.976 31.5221C200.128 31.2627 199.678 31.159 199.418 31.1071C198.103 31.2973 196.753 31.9198 195.438 32.9746C192.721 35.1879 190.351 38.1966 188.413 41.9488C187.149 44.3868 186.492 46.3581 186.492 47.8105C186.492 48.9863 186.803 49.9719 187.444 50.8019C188.032 51.58 188.811 51.9259 189.866 51.9259C191.77 51.9259 193.794 50.7846 195.871 48.5368C196.563 47.6895 197.307 46.8076 198.051 45.9604C199.141 44.7154 200.007 43.92 200.682 43.5569L201.876 42.9171L201.893 42.9344Z" fill="#3A3A3A"/>
<path d="M266.751 30.0523C270.454 30.0523 273.949 30.865 277.255 32.4731C280.992 34.2887 283.83 36.917 285.803 40.3752C287.689 43.6433 288.641 47.3955 288.641 51.6319C288.641 53.9835 288.33 56.4562 287.724 59.0672C285.768 67.6091 281.667 74.5602 275.42 79.9032C272.461 82.4796 269.191 84.5027 265.609 85.9552C261.75 87.4941 258.046 88.2376 254.464 88.203C250.969 88.1685 247.612 87.3385 244.41 85.7131C240.603 83.7592 237.662 80.9753 235.568 77.396C233.56 73.9723 232.557 70.099 232.557 65.7935C232.557 63.6839 232.799 61.4707 233.301 59.1536C234.616 53.0671 237.246 47.6376 241.192 42.8479C245.137 38.0582 249.965 34.5481 255.658 32.3175C259.621 30.7785 263.324 30.0177 266.751 30.0177V30.0523ZM255.312 51.0613C254.776 53.5166 254.499 56.508 254.499 60.0009C254.499 64.6868 255.226 68.4218 256.697 71.1884C257.579 72.9175 258.86 73.8685 260.504 74.0242C263.203 73.8685 264.986 71.3094 265.868 66.3468C266.214 64.3929 266.439 62.2488 266.56 59.949C266.837 54.5195 266.093 50.214 264.363 47.0151C263.48 45.3551 262.234 44.4387 260.608 44.2485C257.995 44.3177 256.212 46.6001 255.295 51.0613H255.312Z" fill="#FFD245"/>
<path d="M254.689 89.1714C254.603 89.1714 254.516 89.1714 254.43 89.1714C250.796 89.1368 247.266 88.2549 243.96 86.595C239.998 84.5546 236.9 81.6324 234.737 77.9147C232.661 74.37 231.605 70.3065 231.605 65.8454C231.605 63.6667 231.865 61.3669 232.384 58.998C233.716 52.8077 236.433 47.188 240.465 42.2946C244.497 37.4011 249.498 33.77 255.312 31.4875C263.774 28.2021 271.094 28.4269 277.67 31.6258C281.563 33.5106 284.574 36.2945 286.634 39.9084C288.589 43.2975 289.593 47.2572 289.593 51.6319C289.593 54.0354 289.281 56.6118 288.641 59.292C286.634 67.9895 282.394 75.1654 276.026 80.6295C272.998 83.2577 269.606 85.35 265.955 86.8543C262.096 88.3933 258.306 89.1714 254.707 89.1714H254.689ZM266.733 31.0033C263.445 31.0033 259.829 31.7642 255.987 33.2512C250.467 35.4126 245.726 38.8536 241.919 43.505C238.094 48.1563 235.499 53.4994 234.235 59.3957C233.751 61.6263 233.508 63.7877 233.508 65.8281C233.508 69.9434 234.478 73.6956 236.381 76.9464C238.354 80.3528 241.209 83.0157 244.826 84.9004C247.871 86.4393 251.107 87.2347 254.447 87.2693C257.856 87.3039 261.507 86.5777 265.228 85.0906C268.689 83.6727 271.907 81.7015 274.78 79.1943C280.837 74.0069 284.869 67.1595 286.772 58.8597C287.378 56.3178 287.672 53.8798 287.672 51.6319C287.672 47.5857 286.755 43.9545 284.972 40.8594C283.104 37.574 280.369 35.0495 276.839 33.3377C273.673 31.7987 270.281 31.0033 266.751 31.0033H266.733ZM260.556 74.9752C258.427 74.785 256.887 73.661 255.849 71.638C254.326 68.7503 253.547 64.8425 253.547 60.0182C253.547 56.4735 253.824 53.3956 254.378 50.8711C255.399 45.9431 257.493 43.4012 260.59 43.3148C262.667 43.5568 264.172 44.6462 265.211 46.5828C267.01 49.9028 267.789 54.4331 267.512 60.0009C267.391 62.3352 267.166 64.5312 266.803 66.5197C265.834 71.9492 263.722 74.8023 260.556 74.9752ZM260.504 45.1995C258.531 45.2687 257.06 47.3091 256.229 51.2515C255.71 53.6377 255.451 56.5945 255.451 60.0009C255.451 64.5139 256.16 68.1278 257.527 70.7561C258.271 72.2086 259.258 72.9521 260.59 73.0731C262.632 72.9521 264.138 70.6351 264.934 66.1739C265.262 64.2546 265.505 62.145 265.609 59.8799C265.868 54.6579 265.176 50.4734 263.532 47.4474C262.788 46.0641 261.802 45.3206 260.504 45.1649V45.1995Z" fill="#3A3A3A"/>
<path d="M341.264 50.3696L336.869 70.9636C334.55 81.8053 331.435 87.2348 327.507 87.2348C325.552 87.2348 322.783 85.0733 319.253 80.7678C317.401 78.5372 314.511 74.5083 310.583 68.7157C307.659 64.4102 305.963 62.2488 305.496 62.2488C304.873 62.2488 304.354 63.2171 303.938 65.1364L303.073 69.0616L302.502 73.7302C302.415 74.2663 302.606 74.7331 303.056 75.1135C303.506 75.4939 303.938 75.8398 304.354 76.151C304.821 76.5833 305.202 77.1366 305.513 77.8283C306.015 79.0905 305.859 80.4911 305.046 81.9782C304.354 83.2405 303.385 84.3298 302.156 85.2117C300.235 86.5604 297.605 87.2348 294.3 87.2348H291.583C289.472 87.2348 287.655 86.9062 286.149 86.2491C284.073 85.3673 283.034 84.0013 283.034 82.1511C283.034 81.8399 283.069 81.5113 283.155 81.1655C284.125 78.2087 285.509 75.9435 287.343 74.3873C289.177 72.8311 290.302 70.9982 290.718 68.8714L294.352 51.6665C294.663 50.3178 294.75 49.142 294.646 48.1391C294.455 46.7903 293.919 45.7183 293.036 44.9056C292.154 44.0929 291.565 42.9171 291.306 41.3782C291.15 40.4963 291.167 39.2686 291.358 37.6778C291.548 36.1043 292.604 34.721 294.542 33.5279C296.809 32.11 299.681 31.4011 303.142 31.4011H307.641C309.753 31.4011 311.397 32.0408 312.556 33.3031C313.906 34.7729 317.713 39.5626 323.994 47.6722C325.309 49.3667 326.452 50.8192 327.455 52.0642C327.836 52.289 328.269 52.5484 328.719 52.8077C328.753 52.8077 328.874 52.3063 329.065 51.3034L330.501 44.4387C330.657 43.8162 330.518 43.3321 330.103 42.9344C329.601 42.6577 329.116 42.381 328.667 42.0698C327.282 41.1879 326.832 39.5107 327.334 37.0553C328.182 33.0092 331.591 31.0034 337.561 31.0034H341.489C346.992 31.0034 349.744 32.4385 349.744 35.3262C349.744 35.7931 349.657 36.2772 349.519 36.7614C348.671 39.8738 347.667 42.0871 346.508 43.4012C346.127 43.8335 345.642 44.2312 345.071 44.6116C344.379 45.0785 343.912 45.4243 343.687 45.6491C342.493 46.7212 341.68 48.2774 341.264 50.3178V50.3696Z" fill="#FFD245"/>
<path d="M327.524 88.1858C325.206 88.1858 322.35 86.0244 318.526 81.373C316.674 79.1251 313.733 75.0444 309.805 69.2345C307.174 65.3439 305.997 63.926 305.496 63.39C305.34 63.6667 305.115 64.22 304.873 65.3266L304.007 69.2518L303.454 73.834C303.419 74.0415 303.454 74.1971 303.679 74.3873C304.094 74.7504 304.509 75.0789 304.907 75.3729C305.548 75.9608 306.015 76.6179 306.378 77.4306C307.001 79.0041 306.828 80.664 305.876 82.4278C305.115 83.8284 304.059 85.0215 302.71 85.9725C300.616 87.4422 297.795 88.1685 294.3 88.1685H291.583C289.35 88.1685 287.395 87.8054 285.768 87.1137C282.723 85.8169 282.083 83.69 282.083 82.1511C282.083 81.7707 282.134 81.373 282.221 80.958C283.259 77.7591 284.765 75.3383 286.72 73.661C288.399 72.2259 289.402 70.6005 289.783 68.6812L293.417 51.4763C293.711 50.214 293.798 49.1419 293.694 48.2601C293.538 47.1534 293.106 46.2716 292.379 45.6145C291.341 44.6635 290.648 43.2975 290.354 41.5511C290.181 40.5655 290.198 39.2686 290.406 37.5741C290.631 35.7066 291.842 34.0812 294.023 32.7325C296.428 31.2281 299.491 30.45 303.125 30.45H307.624C310.012 30.45 311.898 31.1936 313.231 32.6633C314.615 34.1677 318.37 38.8882 324.721 47.0843C325.984 48.7097 327.092 50.1276 328.061 51.3207C328.061 51.2515 328.096 51.1823 328.096 51.1132L329.549 44.2312C329.618 43.92 329.584 43.7989 329.497 43.6952C329.013 43.4358 328.545 43.1419 328.096 42.8479C326.365 41.7413 325.777 39.7182 326.365 36.8478C327.317 32.3175 331.072 30.035 337.527 30.035H341.455C347.563 30.035 350.661 31.816 350.661 35.3089C350.661 35.8622 350.574 36.4328 350.384 37.0207C349.501 40.2888 348.446 42.5885 347.183 44.0064C346.733 44.5079 346.196 44.9574 345.556 45.3897C344.725 45.9431 344.414 46.2024 344.327 46.3062C343.254 47.2745 342.545 48.6751 342.164 50.508L337.769 71.1192C335.329 82.5834 331.972 88.1512 327.49 88.1512L327.524 88.1858ZM305.513 61.2978C306.153 61.2978 306.707 61.2978 311.379 68.1797C315.273 73.9377 318.163 77.9666 319.997 80.1626C324.375 85.4883 326.59 86.2837 327.524 86.2837C330.882 86.2837 333.789 80.9234 335.952 70.7561L340.347 50.1621C340.814 47.9316 341.732 46.1851 343.064 44.9747C343.306 44.7327 343.791 44.3695 344.552 43.8508C345.054 43.5223 345.487 43.1592 345.815 42.796C346.854 41.6202 347.805 39.5107 348.601 36.5539C348.74 36.1216 348.792 35.7239 348.792 35.3608C348.792 33.1129 346.335 31.989 341.489 31.989H337.561C332.058 31.989 329.013 33.7181 328.269 37.2974C327.646 40.3407 328.805 41.0842 329.186 41.3263C329.636 41.6202 330.086 41.8969 330.57 42.1563L330.76 42.2946C331.435 42.9171 331.678 43.7816 331.453 44.7327L330.016 51.5627C329.688 53.2919 329.584 53.8106 328.736 53.8106H328.476L328.251 53.6896C327.784 53.4129 327.351 53.1708 326.971 52.9288L326.728 52.7213C325.725 51.4936 324.565 50.0238 323.25 48.312C317.021 40.2542 313.196 35.4472 311.864 34.012C310.877 32.94 309.51 32.4212 307.659 32.4212H303.16C299.889 32.4212 297.172 33.0956 295.061 34.4097C293.365 35.4472 292.483 36.5884 292.327 37.868C292.154 39.3378 292.119 40.4963 292.258 41.2917C292.483 42.6058 292.967 43.6087 293.694 44.2658C294.75 45.2168 295.39 46.4964 295.615 48.0699C295.753 49.1938 295.649 50.4907 295.303 51.9431L291.669 69.1307C291.202 71.4478 289.956 73.4709 287.983 75.1654C286.305 76.6006 284.99 78.7447 284.09 81.5113C284.055 81.7015 284.021 81.9609 284.021 82.203C284.021 83.1194 284.28 84.4508 286.564 85.4192C287.949 86.0244 289.645 86.3183 291.617 86.3183H294.334C297.432 86.3183 299.889 85.6958 301.637 84.4681C302.744 83.6727 303.609 82.6871 304.232 81.5632C304.907 80.3182 305.046 79.2116 304.648 78.2087C304.405 77.6726 304.094 77.2231 303.731 76.8772C303.367 76.6179 302.917 76.2547 302.45 75.857C301.758 75.2519 301.464 74.491 301.585 73.6265L302.156 68.9751L303.038 64.9635C303.402 63.269 304.025 61.3323 305.53 61.3323L305.513 61.2978Z" fill="#3A3A3A"/>
<path d="M53.1425 106.048C54.025 101.932 57.1052 99.9093 62.3831 99.9958H66.0863L74.6348 100.117C76.0192 100.151 77.2305 100.169 78.2688 100.169C82.6988 100.169 86.6096 100.013 90.0013 99.7018C91.2645 99.5808 92.6143 99.4597 94.0506 99.3041C96.3521 99.5808 97.823 101.31 98.446 104.492C98.7228 105.84 98.8094 107.206 98.7401 108.59C98.7055 109.938 98.5671 111.149 98.3421 112.221C97.9095 114.036 97.1827 115.575 96.1445 116.838C94.8293 118.411 93.3584 119.085 91.6972 118.861C89.6898 118.584 87.994 117.304 86.6096 114.987C85.8828 113.794 85.3637 113.033 85.0522 112.67C84.36 111.909 83.5467 111.477 82.6295 111.408L78.0611 111.01C76.8671 110.889 75.9846 111.339 75.3962 112.342C75.0847 112.878 74.7732 113.915 74.4791 115.454L73.5619 119.898C73.3716 120.745 73.2851 121.16 73.337 121.16C73.4581 121.195 73.7696 121.195 74.2541 121.16C75.0155 121.091 75.6039 120.676 75.9846 119.95C76.2614 119.258 76.521 118.549 76.7979 117.823C77.6804 115.627 79.7224 114.417 82.9237 114.192C84.2389 114.071 85.2079 114.763 85.8655 116.267C86.3673 117.339 86.6096 118.636 86.6096 120.14C86.6096 121.748 86.3846 123.702 85.9174 125.967C83.7543 136.238 80.6222 141.374 76.5037 141.374C74.1503 140.907 72.9736 139.368 72.9736 136.757C72.9736 135.028 72.9736 134.215 72.9736 134.336C72.8524 133.368 72.4198 132.832 71.6411 132.728C71.1047 132.728 70.7759 132.953 70.6548 133.42C70.5336 133.887 70.4471 134.336 70.3606 134.803L69.3742 140.233C69.0627 141.737 69.3569 142.671 70.2394 143.068C70.6547 143.224 71.1047 143.38 71.5719 143.535C72.0391 143.691 72.4198 143.916 72.7313 144.227C73.0774 144.659 73.3197 145.299 73.4754 146.181C73.7523 147.53 73.7004 148.948 73.3543 150.452C72.9736 152.146 72.316 153.374 71.3988 154.152C69.2877 155.881 66.2248 156.85 62.2101 157.04C60.4796 157.109 58.9222 157.161 57.5378 157.161C52.6926 157.161 49.1797 156.815 47.0339 156.123C44.4902 155.311 43.2269 153.945 43.2269 152.025C43.2269 151.403 43.3827 150.677 43.6942 149.829C44.8016 146.475 46.2033 144.279 47.8473 143.189C48.8509 142.532 49.4566 142.066 49.6989 141.806C50.0796 141.391 50.4083 140.63 50.6852 139.558C51.6024 135.599 52.5714 131.345 53.5751 126.797L54.5615 122.059C55.3229 118.48 55.669 116.25 55.5997 115.368C55.444 114.365 55.0114 113.569 54.3019 112.947C53.5924 112.342 53.1598 111.287 53.004 109.835C52.9348 108.953 52.9867 107.708 53.1771 106.082L53.1425 106.048Z" fill="#FFD245"/>
<path d="M57.5378 158.077C52.5368 158.077 49.0066 157.714 46.7397 156.988C43.0365 155.812 42.2751 153.616 42.2751 151.991C42.2751 151.247 42.4482 150.435 42.7943 149.466C43.9883 145.904 45.4592 143.57 47.3281 142.36C48.6086 141.512 48.9201 141.218 48.972 141.149C49.1451 140.959 49.4566 140.492 49.7507 139.282C50.6679 135.339 51.6369 131.086 52.6406 126.555L53.627 121.835C54.6133 117.287 54.6826 115.852 54.6479 115.42C54.5268 114.711 54.2153 114.105 53.6789 113.639C52.779 112.861 52.2426 111.616 52.0523 109.904C51.9657 108.935 52.0176 107.639 52.2253 105.944V105.858C53.229 101.258 56.6726 98.9756 62.4177 99.0447H66.1036L74.6694 99.1658C76.0538 99.2004 77.2651 99.2177 78.3034 99.2177C82.6814 99.2177 86.5923 99.062 89.9494 98.7508C91.2126 98.6297 92.5624 98.5087 93.9813 98.3531H94.0852H94.189C96.9404 98.6816 98.7055 100.67 99.3977 104.319C99.6746 105.719 99.7784 107.189 99.7092 108.641C99.6746 110.007 99.5188 111.304 99.2766 112.428C98.8093 114.399 98.0133 116.077 96.8885 117.443C95.3484 119.293 93.566 120.088 91.576 119.794C89.9667 119.587 88.5304 118.791 87.2845 117.46C87.4748 118.273 87.5786 119.155 87.5786 120.123C87.5786 121.8 87.3364 123.823 86.8691 126.14C84.5849 137.016 81.1932 142.308 76.521 142.308H76.3306C74.3752 141.91 72.0391 140.63 72.0391 136.74V134.371C71.9526 133.697 71.693 133.662 71.52 133.627C71.4853 134.042 71.3988 134.475 71.3296 134.924L70.3432 140.371C70.0318 141.893 70.499 142.1 70.6547 142.152C71.0181 142.273 71.4507 142.429 71.9007 142.584C72.5063 142.792 73.0081 143.103 73.4235 143.501C73.9426 144.141 74.2541 144.919 74.4444 145.973C74.7386 147.426 74.6867 148.999 74.3233 150.625C73.8907 152.51 73.1293 153.927 72.0391 154.827C69.7722 156.694 66.4843 157.731 62.2966 157.939C60.5488 158.008 58.9741 158.06 57.5724 158.06L57.5378 158.077ZM54.0942 106.221C53.9212 107.742 53.8519 108.918 53.9212 109.731C54.0423 110.924 54.3711 111.754 54.8902 112.203C55.7727 112.964 56.3265 113.984 56.5168 115.195C56.5861 115.886 56.5168 117.304 55.4613 122.232L54.4749 126.953C53.4712 131.501 52.5022 135.772 51.585 139.731C51.2735 140.993 50.8755 141.858 50.3737 142.411C50.1834 142.619 49.768 143.017 48.3491 143.95C46.8782 144.901 45.6149 146.976 44.5767 150.089C44.2998 150.85 44.1614 151.472 44.1614 151.973C44.1614 152.907 44.4901 154.273 47.3108 155.172C49.37 155.829 52.8137 156.175 57.5378 156.175C58.9049 156.175 60.4623 156.141 62.1755 156.054C65.9479 155.864 68.855 154.965 70.7932 153.374C71.5373 152.752 72.091 151.68 72.4371 150.21C72.7486 148.844 72.7832 147.547 72.5409 146.337C72.3852 145.42 72.1429 144.988 71.9872 144.78C71.8487 144.642 71.5892 144.504 71.2604 144.383C70.7932 144.227 70.3432 144.071 69.9106 143.916C68.9243 143.483 67.9206 142.481 68.4397 140.008L69.4088 134.613C69.478 134.146 69.5818 133.662 69.703 133.161C69.9279 132.279 70.6374 131.743 71.6065 131.743C72.4371 131.864 73.6484 132.313 73.8734 134.198L73.0255 134.302H73.8907V136.74C73.8907 138.884 74.7213 140.008 76.5556 140.406C80.0511 140.319 82.9583 135.253 84.9483 125.76C85.3983 123.564 85.6232 121.662 85.6232 120.123C85.6232 118.774 85.3983 117.598 84.9656 116.647C84.3254 115.195 83.5813 115.057 82.9583 115.108C80.1203 115.316 78.3726 116.301 77.6285 118.152C77.3689 118.861 77.092 119.57 76.8325 120.278C76.2441 121.385 75.3962 121.99 74.306 122.094C73.7003 122.146 73.3889 122.129 73.1812 122.094H72.8351L72.5409 121.731C72.2121 121.316 72.2814 121.005 72.5928 119.656L73.51 115.229C73.8388 113.552 74.1676 112.463 74.5483 111.84C75.327 110.509 76.5556 109.886 78.113 110.042L82.6641 110.44C83.8235 110.543 84.8618 111.062 85.7097 112.013C86.0558 112.411 86.5923 113.189 87.371 114.469C88.6169 116.544 90.0532 117.667 91.7664 117.892C93.0815 118.065 94.2582 117.529 95.3484 116.215C96.2829 115.074 96.9577 113.656 97.3557 111.979C97.5634 110.976 97.7018 109.817 97.7364 108.538C97.8057 107.206 97.7191 105.909 97.4596 104.647C96.9404 101.932 95.7983 100.48 93.9986 100.221C92.6143 100.376 91.2991 100.497 90.0532 100.618C86.6615 100.929 82.6814 101.085 78.2514 101.085C77.1959 101.085 75.9845 101.068 74.5829 101.033L62.3658 100.912C57.5724 100.912 54.8556 102.572 54.0596 106.186L54.0942 106.221ZM77.6804 111.961C77.0055 111.961 76.5556 112.238 76.2095 112.826C76.0365 113.12 75.7596 113.863 75.3962 115.644L74.479 120.088C74.479 120.088 74.479 120.123 74.479 120.157C74.7559 120.054 74.9636 119.846 75.1539 119.518C75.3789 118.93 75.6384 118.221 75.9153 117.495C76.9536 114.918 79.2897 113.5 82.8545 113.241C83.339 113.189 83.8928 113.241 84.4638 113.448C84.4292 113.397 84.3773 113.345 84.36 113.31C83.8408 112.722 83.2525 112.411 82.5603 112.359L77.9919 111.961C77.8881 111.961 77.8015 111.961 77.715 111.961H77.6804Z" fill="#3A3A3A"/>
<path d="M104.831 102.019C106.458 100.895 108.5 100.359 111.009 100.393L129.439 100.687C134.682 100.687 139.233 100.376 143.126 99.771C146.674 100.082 148.283 102.762 147.972 107.829C147.747 111.443 146.83 114.451 145.255 116.855C144.217 118.463 142.677 119.31 140.635 119.379C138.627 118.947 136.949 117.616 135.616 115.333C134.89 114.105 134.318 113.293 133.938 112.912C133.246 112.307 132.363 111.927 131.273 111.823H126.826C125.51 111.823 124.645 112.186 124.23 112.912C124.109 113.189 123.884 114.157 123.538 115.852L122.621 120.296C122.344 121.558 122.24 122.319 122.274 122.544C122.309 122.768 122.638 122.889 123.261 122.889C124.109 122.889 124.766 122.44 125.216 121.558C125.528 120.745 125.805 119.933 126.081 119.137C127.085 116.474 128.937 114.97 131.619 114.572C134.353 114.884 135.72 116.907 135.72 120.624C135.72 121.938 135.461 123.771 134.976 126.158C132.778 136.429 129.594 141.53 125.389 141.443C123.001 140.976 121.928 139.524 122.153 137.051C122.274 136.135 122.361 135.287 122.447 134.509C122.569 133.748 122.223 133.299 121.409 133.178C120.682 133.212 120.198 133.368 119.99 133.645C119.783 133.921 119.592 134.44 119.436 135.201L118.398 140.164C118.017 141.979 117.896 143.224 118.052 143.916C118.208 144.694 118.952 145.074 120.302 145.074H122.967C125.856 145.074 128.348 144.21 130.477 142.481C131.134 141.91 131.878 141.132 132.726 140.181C133.799 138.832 134.474 138.002 134.751 137.691C136.326 136.031 137.987 135.235 139.717 135.27C141.448 135.305 142.642 136.065 143.3 137.518C143.576 138.14 143.698 138.78 143.698 139.472C143.698 140.198 143.646 140.855 143.525 141.426C142.953 144.313 141.656 147.443 139.648 150.832C137.295 154.913 134.907 157.195 132.484 157.697C130.563 157.42 127.691 157.057 123.884 156.608C122.967 156.487 121.807 156.435 120.423 156.435H95.5907C94.241 156.435 93.22 155.968 92.4932 155.051C91.7837 154.135 91.576 153.011 91.8875 151.697C92.4932 148.965 93.8949 146.838 96.0406 145.299C97.2693 144.417 98.1691 143.587 98.7575 142.844C99.3285 142.1 99.813 141.028 100.194 139.645C100.384 138.884 100.644 137.812 100.938 136.463L101.855 132.538C102.461 130.083 103.291 126.382 104.33 121.454C104.866 118.497 105.091 116.613 105.022 115.8C104.901 114.572 104.433 113.587 103.585 112.86C102.738 112.134 102.201 110.993 101.976 109.454C101.509 106.151 102.461 103.644 104.814 101.95L104.831 102.019Z" fill="#FFD245"/>
<path d="M132.519 158.717H132.363C130.442 158.423 127.587 158.06 123.78 157.593C122.897 157.489 121.773 157.42 120.423 157.42H95.5907C93.9295 157.42 92.6489 156.832 91.7491 155.657C90.8492 154.498 90.5897 153.115 90.9704 151.507C91.6279 148.567 93.1508 146.215 95.5042 144.555C96.6463 143.726 97.4942 142.965 98.0133 142.29C98.5152 141.633 98.9478 140.665 99.2939 139.42C99.4842 138.676 99.7265 137.622 100.038 136.29L100.972 132.365C101.595 129.858 102.426 126.14 103.447 121.299C104.087 117.754 104.174 116.423 104.122 115.938C104.035 114.953 103.655 114.192 102.997 113.621C101.976 112.739 101.319 111.408 101.059 109.644C100.54 105.961 101.63 103.143 104.278 101.223C106.06 99.9957 108.362 99.3733 111.009 99.4251L129.439 99.7191C134.595 99.7191 139.146 99.4078 142.953 98.8026H143.075H143.196C146.034 99.0447 149.339 100.826 148.906 107.863C148.664 111.616 147.695 114.814 146.034 117.356C144.822 119.224 143.005 120.227 140.652 120.313H140.531L140.41 120.296C138.887 119.967 137.537 119.189 136.36 117.961C136.533 118.722 136.637 119.604 136.637 120.642C136.637 122.025 136.378 123.892 135.876 126.382C133.557 137.276 130.113 142.567 125.337 142.429C122.326 141.858 120.907 139.939 121.167 136.999C121.288 136.048 121.375 135.218 121.461 134.457C121.478 134.319 121.461 134.25 121.461 134.215C121.444 134.215 121.409 134.198 121.305 134.181C120.821 134.215 120.665 134.302 120.648 134.319C120.648 134.319 120.492 134.561 120.319 135.443L119.281 140.406C118.814 142.584 118.865 143.449 118.935 143.76C119.004 144.141 119.973 144.175 120.267 144.175H122.932C125.614 144.175 127.881 143.397 129.837 141.789C130.425 141.27 131.152 140.509 131.982 139.593C133.038 138.261 133.73 137.431 134.007 137.12C135.807 135.235 137.676 134.336 139.7 134.371C141.794 134.423 143.317 135.391 144.13 137.189C144.459 137.933 144.615 138.711 144.615 139.541C144.615 140.371 144.545 141.045 144.424 141.685C143.836 144.659 142.486 147.927 140.444 151.386C137.935 155.743 135.391 158.129 132.657 158.7L132.501 158.734L132.519 158.717ZM105.368 102.78C103.309 104.267 102.513 106.411 102.928 109.368C103.118 110.664 103.551 111.616 104.226 112.186C105.264 113.085 105.852 114.278 105.991 115.765C106.043 116.336 106.025 117.581 105.281 121.679C104.26 126.573 103.412 130.307 102.789 132.815L101.872 136.723C101.561 138.071 101.319 139.143 101.111 139.904C100.678 141.443 100.159 142.602 99.5015 143.449C98.8613 144.279 97.9095 145.143 96.5944 146.094C94.6043 147.512 93.3757 149.414 92.8047 151.939C92.5624 152.976 92.7008 153.806 93.2373 154.498C93.7564 155.19 94.5351 155.518 95.5734 155.518H120.406C121.859 155.518 123.036 155.57 123.988 155.691C127.691 156.141 130.511 156.504 132.432 156.763C134.526 156.262 136.672 154.118 138.818 150.383C140.756 147.097 142.019 144.037 142.573 141.27C142.677 140.751 142.728 140.163 142.728 139.489C142.728 138.919 142.625 138.4 142.4 137.898C141.898 136.792 141.033 136.256 139.666 136.221C138.195 136.204 136.81 136.878 135.409 138.348C135.166 138.625 134.509 139.437 133.436 140.769C132.536 141.789 131.757 142.602 131.065 143.189C128.746 145.074 126.03 146.025 122.932 146.025H120.267C117.948 146.025 117.256 144.988 117.083 144.106C116.893 143.276 117.014 141.962 117.429 139.973L118.467 135.011C118.658 134.077 118.883 133.454 119.194 133.057C119.592 132.555 120.284 132.296 121.305 132.227H121.392H121.478C122.153 132.331 122.655 132.59 122.984 133.039C123.313 133.472 123.417 134.008 123.33 134.648C123.261 135.374 123.157 136.238 123.036 137.172C122.845 139.126 123.59 140.129 125.51 140.509C125.528 140.509 125.545 140.509 125.562 140.509C129.023 140.509 131.913 135.616 133.99 125.95C134.474 123.633 134.716 121.835 134.716 120.607C134.716 116.474 132.969 115.696 131.584 115.506C129.3 115.869 127.777 117.149 126.912 119.448C126.652 120.227 126.358 121.057 126.047 121.869C125.216 123.495 124.039 123.806 123.192 123.806C121.755 123.806 121.357 123.183 121.271 122.665C121.219 122.388 121.219 121.973 121.634 120.054L122.551 115.61C123.019 113.293 123.192 112.722 123.295 112.48C123.953 111.339 125.112 110.803 126.774 110.803H131.221C132.588 110.941 133.661 111.391 134.509 112.134C134.993 112.636 135.599 113.483 136.378 114.78C137.572 116.786 138.973 117.961 140.669 118.342C142.33 118.255 143.559 117.564 144.407 116.25C145.895 113.984 146.743 111.097 146.968 107.673C147.332 101.811 144.961 100.826 143.092 100.636C139.198 101.241 134.578 101.552 129.369 101.552L110.94 101.258C108.656 101.223 106.769 101.708 105.316 102.693L105.368 102.78ZM125.043 113.379C125.043 113.379 124.905 113.863 124.455 116.042L123.538 120.486C123.382 121.195 123.313 121.644 123.261 121.938C123.607 121.938 123.988 121.835 124.368 121.126C124.628 120.434 124.905 119.639 125.182 118.843C126.324 115.817 128.435 114.088 131.498 113.639H131.619H131.74C132.415 113.708 133.142 113.898 133.817 114.261C133.54 113.881 133.367 113.673 133.28 113.569C132.778 113.12 132.086 112.843 131.204 112.757H126.86C125.926 112.757 125.32 112.964 125.078 113.379H125.043Z" fill="#3A3A3A"/>
<path d="M177.805 99.7537C179.12 99.7537 180.678 99.9266 182.477 100.255C183.983 100.514 185.505 100.791 187.046 101.085L191.095 100.515C193.327 100.86 195.11 102.641 196.459 105.875C196.996 107.258 197.359 108.676 197.55 110.146C197.861 112.532 197.532 114.624 196.563 116.44C194.954 119.483 192.635 121.005 189.641 121.005C188.516 121.005 187.478 120.538 186.526 119.621C186.025 119.206 185.281 118.29 184.277 116.872C182.27 114.192 180.21 112.895 178.099 112.982C176.438 113.016 175.555 113.604 175.434 114.711C175.4 114.901 175.382 115.091 175.382 115.281C175.382 116.509 177.078 117.581 180.47 118.515C182.893 119.241 184.64 119.794 185.73 120.192C187.617 120.953 189.174 121.904 190.403 123.011C192.791 125.155 193.985 128.146 193.985 131.95C193.985 133.489 193.777 135.114 193.344 136.844C192.531 140.233 191.078 143.328 188.949 146.181C185.142 151.247 180.228 154.654 174.223 156.383C171.42 157.195 168.616 157.576 165.847 157.541C162.733 157.507 159.687 157.092 156.728 156.331C153.146 155.363 150.412 154.031 148.526 152.285C147.954 151.749 147.487 150.452 147.141 148.411C146.951 147.409 146.847 146.285 146.847 145.005C146.847 143.656 146.985 142.377 147.245 141.132L148.058 137.431C148.179 136.463 148.612 135.512 149.391 134.544C150.429 133.23 151.831 132.59 153.613 132.59C155.032 132.59 156.226 133.264 157.195 134.613C157.732 135.305 158.389 136.601 159.151 138.486C160.812 142.446 163.615 144.434 167.578 144.434C169.308 144.434 170.312 143.76 170.572 142.411C170.762 141.599 170.139 140.803 168.72 139.991C168.339 139.8 167.284 139.334 165.536 138.607C160.881 136.619 157.662 134.665 155.897 132.78C153.509 130.238 152.315 127.264 152.315 123.841C152.315 122.457 152.488 120.953 152.834 119.345C153.752 115.005 155.776 111.218 158.891 107.984C161.885 104.837 165.553 102.555 169.862 101.12C172.631 100.203 175.278 99.7364 177.77 99.7364L177.805 99.7537Z" fill="#FFD245"/>
<path d="M166.211 158.475C166.09 158.475 165.951 158.475 165.83 158.475C162.646 158.44 159.497 158.025 156.486 157.23C152.765 156.227 149.875 154.792 147.885 152.976C147.124 152.267 146.605 150.867 146.207 148.567C145.999 147.53 145.895 146.337 145.895 145.005C145.895 143.604 146.034 142.221 146.328 140.942L147.141 137.241C147.262 136.186 147.781 135.063 148.664 133.956C149.927 132.382 151.692 131.587 153.786 131.639C152.194 129.339 151.398 126.728 151.398 123.84C151.398 122.388 151.571 120.815 151.935 119.155C152.886 114.659 155.015 110.682 158.251 107.345C161.348 104.094 165.173 101.708 169.603 100.238C172.458 99.2868 175.227 98.8026 177.822 98.8026C179.189 98.8026 180.816 98.9756 182.668 99.3214C184.121 99.5635 185.592 99.8401 187.08 100.117L191.112 99.5462H191.251C193.829 99.9612 195.871 101.967 197.359 105.512C197.93 106.981 198.311 108.486 198.519 110.025C198.847 112.601 198.484 114.901 197.428 116.889C195.802 119.933 193.518 121.61 190.593 121.904C190.749 122.042 190.905 122.163 191.06 122.302C193.639 124.636 194.954 127.869 194.954 131.933C194.954 133.541 194.729 135.253 194.296 137.051C193.466 140.527 191.925 143.795 189.745 146.734C185.817 151.956 180.695 155.501 174.517 157.282C171.766 158.077 168.98 158.475 166.245 158.475H166.211ZM153.596 133.541C152.125 133.541 150.983 134.06 150.118 135.149C149.46 135.962 149.079 136.774 148.993 137.553L148.162 141.339C147.903 142.498 147.781 143.726 147.781 145.005C147.781 146.215 147.868 147.288 148.058 148.221C148.491 150.711 148.975 151.403 149.166 151.576C150.914 153.184 153.544 154.481 156.97 155.397C159.843 156.141 162.836 156.538 165.865 156.573C168.53 156.608 171.264 156.227 173.963 155.449C179.743 153.789 184.519 150.469 188.188 145.593C190.212 142.861 191.631 139.852 192.41 136.601C192.808 134.942 193.016 133.368 193.016 131.916C193.016 128.354 191.943 125.673 189.745 123.685C188.603 122.647 187.115 121.748 185.35 121.039C184.329 120.676 182.581 120.123 180.176 119.397C177.718 118.722 174.413 117.564 174.413 115.264C174.413 115.005 174.431 114.763 174.482 114.503C174.569 113.656 175.157 112.082 178.047 112.013C180.453 111.927 182.823 113.362 185.004 116.284C186.198 117.979 186.803 118.619 187.115 118.878C187.945 119.673 188.741 120.036 189.624 120.036C192.272 120.036 194.262 118.705 195.715 115.99C196.58 114.365 196.875 112.446 196.598 110.267C196.407 108.883 196.061 107.517 195.559 106.221C194.383 103.419 192.877 101.811 191.06 101.466L187.011 102.036L186.855 102.002C185.315 101.708 183.81 101.431 182.304 101.172C180.556 100.843 179.034 100.687 177.788 100.687C175.4 100.687 172.838 101.137 170.174 102.019C166.02 103.385 162.473 105.615 159.583 108.624C156.607 111.702 154.651 115.368 153.769 119.518C153.44 121.057 153.267 122.509 153.267 123.806C153.267 127.005 154.357 129.72 156.589 132.088C158.268 133.869 161.4 135.754 165.917 137.691C167.682 138.434 168.755 138.901 169.135 139.091C171.022 140.164 171.783 141.322 171.489 142.584C171.281 143.587 170.502 145.334 167.561 145.334C163.2 145.334 160.068 143.138 158.251 138.797C157.507 136.999 156.901 135.772 156.416 135.149C155.62 134.025 154.686 133.489 153.578 133.489L153.596 133.541ZM159.358 136.584C159.566 137.051 159.791 137.553 160.016 138.106C161.521 141.702 163.996 143.466 167.561 143.466C169.17 143.466 169.499 142.826 169.637 142.204C169.706 141.927 169.378 141.426 168.253 140.803C167.924 140.648 166.886 140.181 165.173 139.472C162.888 138.486 160.95 137.535 159.358 136.584ZM178.255 113.915C178.255 113.915 178.168 113.915 178.116 113.915C176.455 113.95 176.403 114.538 176.369 114.797C176.334 115.022 176.317 115.143 176.317 115.281C176.317 115.402 176.438 116.44 180.695 117.598C182.218 118.048 183.464 118.446 184.467 118.774C184.173 118.394 183.844 117.944 183.481 117.425C181.75 115.108 179.985 113.933 178.255 113.933V113.915Z" fill="#3A3A3A"/>
<path d="M202.689 110.786C204.696 106.895 207.119 103.8 209.974 101.5C211.48 100.307 213.003 99.6154 214.543 99.4252C214.923 99.4597 215.546 99.6154 216.394 99.892C217.242 100.169 217.9 100.29 218.35 100.29H240.24C240.551 100.29 241.157 100.082 242.057 99.6845C242.957 99.2868 243.978 99.1312 245.085 99.2522C247.543 99.477 249.342 101.344 250.45 104.855C250.917 106.324 251.176 107.846 251.263 109.471C251.332 111.045 251.246 112.446 250.969 113.69C250.467 116.042 249.602 117.961 248.373 119.466C246.868 121.316 245.051 122.163 242.888 122.008C240.43 121.817 238.717 120.538 237.748 118.204C237.471 117.356 237.212 116.509 236.935 115.662C236.554 114.555 236.139 113.829 235.723 113.535C235.533 113.691 235.395 113.863 235.325 114.054L229.84 139.731C229.563 140.993 229.823 141.927 230.584 142.498C231.051 142.723 231.726 143.293 232.609 144.175C232.886 144.642 233.093 145.299 233.249 146.129C233.405 147.253 233.37 148.463 233.128 149.76C232.661 152.302 230.844 154.066 227.677 155.069C224.51 156.072 220.443 156.556 215.512 156.504C209.005 156.469 204.869 155.19 203.104 152.7C202.447 151.818 202.239 150.763 202.464 149.518C203 146.63 203.952 144.694 205.302 143.691C206.063 143.311 207.309 142.498 209.005 141.27C210.476 139.8 211.618 137.051 212.466 133.022L216.1 115.938C216.221 115.402 216.29 114.953 216.325 114.607C216.325 114.261 216.308 113.95 216.273 113.69C215.702 114.002 214.906 114.728 213.902 115.886C213.176 116.734 212.431 117.598 211.705 118.48C209.438 120.936 207.205 122.181 205.008 122.181C203.658 122.181 202.602 121.679 201.824 120.676C201.045 119.673 200.664 118.48 200.664 117.097C200.664 115.489 201.339 113.379 202.689 110.803V110.786Z" fill="#FFD245"/>
<path d="M216.048 157.438C215.875 157.438 215.685 157.438 215.512 157.438C208.624 157.403 204.298 156.02 202.326 153.218C201.53 152.129 201.253 150.815 201.53 149.328C202.118 146.164 203.173 144.071 204.731 142.913C205.596 142.463 206.79 141.685 208.434 140.492C209.645 139.264 210.718 136.653 211.532 132.815L215.131 115.921C214.975 116.094 214.802 116.284 214.629 116.492C213.902 117.339 213.176 118.186 212.449 119.068C209.974 121.766 207.482 123.097 205.025 123.097C203.381 123.097 202.049 122.474 201.097 121.23C200.197 120.071 199.747 118.67 199.747 117.08C199.747 115.299 200.439 113.085 201.876 110.353C203.935 106.376 206.461 103.143 209.403 100.757C211.047 99.4597 212.743 98.6816 214.439 98.4741H214.543H214.646C215.096 98.526 215.754 98.6816 216.688 98.9756C217.623 99.2695 218.125 99.3387 218.367 99.3387H240.257C240.257 99.3387 240.586 99.3041 241.694 98.8199C242.749 98.3531 243.926 98.1802 245.206 98.3012C248.062 98.5606 250.138 100.67 251.384 104.561C251.869 106.1 252.163 107.742 252.232 109.42C252.319 111.062 252.215 112.567 251.921 113.881C251.384 116.371 250.45 118.446 249.135 120.054C247.439 122.146 245.31 123.097 242.853 122.941C239.998 122.717 238.008 121.247 236.9 118.549L236.07 115.938C236.07 115.938 236.035 115.852 236.018 115.8L230.792 139.921C230.515 141.236 230.999 141.599 231.19 141.737C231.605 141.927 232.349 142.532 233.318 143.501L233.474 143.691C233.803 144.262 234.045 144.988 234.218 145.956C234.391 147.201 234.356 148.533 234.097 149.933C233.56 152.838 231.518 154.878 227.988 155.985C224.856 156.971 220.841 157.472 216.065 157.472L216.048 157.438ZM217.034 112.186L217.225 113.535C217.259 113.846 217.294 114.192 217.294 114.59C217.242 115.074 217.173 115.541 217.034 116.111L213.401 133.195C212.501 137.449 211.289 140.302 209.68 141.927C207.811 143.293 206.565 144.123 205.735 144.521C204.731 145.282 203.9 147.045 203.416 149.674C203.243 150.642 203.381 151.437 203.883 152.112C205.475 154.36 209.386 155.501 215.546 155.535C220.34 155.553 224.354 155.103 227.417 154.135C230.255 153.236 231.83 151.749 232.228 149.553C232.436 148.36 232.47 147.236 232.332 146.215C232.193 145.455 232.003 144.971 231.865 144.694C230.878 143.708 230.394 143.397 230.186 143.293C229.303 142.653 228.49 141.547 228.94 139.472L234.426 113.794C234.616 113.293 234.841 112.982 235.17 112.722L235.741 112.273L236.329 112.705C236.935 113.137 237.419 113.967 237.887 115.299L238.7 117.858C239.496 119.794 240.915 120.849 243.009 121.005C244.843 121.143 246.383 120.417 247.681 118.809C248.806 117.425 249.619 115.627 250.086 113.431C250.346 112.273 250.432 110.941 250.363 109.471C250.294 107.95 250.034 106.48 249.602 105.097C248.598 101.967 247.11 100.359 245.051 100.151C244.082 100.048 243.251 100.151 242.49 100.514C241.123 101.12 240.603 101.206 240.275 101.206H218.384C217.813 101.206 217.086 101.068 216.135 100.757C215.287 100.497 214.819 100.393 214.577 100.342C213.262 100.532 211.912 101.154 210.597 102.209C207.863 104.422 205.51 107.448 203.571 111.183C202.308 113.621 201.651 115.593 201.651 117.045C201.651 118.221 201.962 119.206 202.602 120.036C203.191 120.815 203.969 121.16 205.025 121.16C206.929 121.16 208.953 120.019 211.03 117.771C211.722 116.924 212.466 116.042 213.21 115.195C214.3 113.95 215.166 113.154 215.84 112.791L217.052 112.152L217.034 112.186Z" fill="#3A3A3A"/>
<path d="M268.464 108.711C268.758 107.379 269.762 106.722 271.475 106.739H272.669L275.455 106.774C275.905 106.774 276.303 106.791 276.632 106.791C278.068 106.791 279.348 106.739 280.456 106.636C280.871 106.601 281.304 106.549 281.771 106.497C282.515 106.584 283 107.154 283.207 108.192C283.294 108.624 283.329 109.074 283.294 109.523C283.294 109.956 283.242 110.353 283.155 110.699C283.017 111.287 282.775 111.788 282.446 112.203C282.013 112.722 281.546 112.93 280.992 112.86C280.335 112.774 279.781 112.359 279.331 111.598C279.089 111.218 278.916 110.958 278.829 110.855C278.604 110.613 278.345 110.474 278.033 110.44L276.545 110.301C276.147 110.267 275.87 110.405 275.68 110.734C275.576 110.907 275.472 111.252 275.386 111.754L275.092 113.206C275.022 113.483 275.005 113.621 275.022 113.621C275.057 113.621 275.161 113.621 275.316 113.621C275.559 113.604 275.749 113.466 275.887 113.224C275.974 112.999 276.061 112.774 276.147 112.532C276.441 111.823 277.099 111.425 278.137 111.356C278.57 111.322 278.881 111.546 279.089 112.031C279.245 112.376 279.331 112.809 279.331 113.293C279.331 113.812 279.262 114.451 279.106 115.195C278.397 118.532 277.376 120.209 276.043 120.209C275.282 120.054 274.901 119.552 274.901 118.705C274.901 118.134 274.901 117.875 274.901 117.91C274.867 117.598 274.728 117.425 274.469 117.391C274.295 117.391 274.192 117.46 274.157 117.616C274.122 117.771 274.088 117.91 274.071 118.065L273.759 119.829C273.655 120.313 273.759 120.624 274.036 120.745C274.174 120.797 274.313 120.849 274.469 120.901C274.624 120.953 274.745 121.022 274.849 121.126C274.953 121.264 275.04 121.472 275.092 121.766C275.178 122.198 275.161 122.665 275.057 123.149C274.936 123.702 274.711 124.1 274.417 124.342C273.724 124.913 272.738 125.224 271.423 125.276C270.852 125.293 270.35 125.31 269.9 125.31C268.325 125.31 267.183 125.189 266.474 124.964C265.643 124.705 265.228 124.255 265.228 123.633C265.228 123.425 265.28 123.201 265.384 122.924C265.747 121.835 266.197 121.108 266.733 120.763C267.062 120.555 267.253 120.4 267.339 120.313C267.46 120.175 267.564 119.933 267.651 119.587C267.945 118.29 268.256 116.907 268.585 115.437L268.896 113.898C269.156 112.739 269.26 112.013 269.243 111.719C269.191 111.391 269.052 111.131 268.81 110.924C268.585 110.716 268.429 110.388 268.395 109.904C268.377 109.61 268.395 109.212 268.447 108.676L268.464 108.711Z" fill="#FFD245"/>
<path d="M269.883 126.036C268.222 126.036 267.028 125.915 266.249 125.656C264.743 125.172 264.518 124.186 264.518 123.65C264.518 123.356 264.588 123.045 264.709 122.699C265.124 121.454 265.66 120.624 266.335 120.192C266.56 120.036 266.716 119.933 266.803 119.863C266.803 119.863 266.872 119.76 266.958 119.431C267.253 118.152 267.564 116.768 267.893 115.299L268.204 113.76C268.55 112.203 268.533 111.84 268.533 111.788C268.516 111.685 268.464 111.564 268.36 111.477C267.997 111.166 267.772 110.665 267.702 110.007C267.668 109.644 267.702 109.212 267.754 108.624V108.555C268.014 107.396 268.845 106.013 271.388 106.013C271.423 106.013 271.458 106.013 271.492 106.013L275.472 106.048C275.922 106.048 276.32 106.065 276.649 106.065C278.068 106.065 279.331 106.013 280.404 105.909C280.819 105.875 281.252 105.823 281.702 105.771C282.619 105.858 283.571 106.324 283.9 108.036C284.003 108.52 284.038 109.039 284.003 109.541C284.003 110.007 283.934 110.44 283.848 110.837C283.675 111.546 283.398 112.152 282.982 112.636C282.238 113.535 281.442 113.621 280.889 113.552C280.594 113.518 280.317 113.431 280.041 113.293C280.041 113.863 279.954 114.538 279.798 115.299C279.002 119.051 277.774 120.884 276.026 120.884C275.784 120.832 275.576 120.78 275.386 120.693C275.576 120.953 275.68 121.247 275.749 121.61C275.853 122.129 275.836 122.699 275.697 123.287C275.541 123.996 275.247 124.532 274.815 124.878C274.001 125.535 272.859 125.915 271.406 125.985C270.835 126.002 270.315 126.019 269.848 126.019L269.883 126.036ZM269.156 108.814C269.087 109.385 269.087 109.696 269.104 109.852C269.139 110.163 269.225 110.336 269.277 110.388C269.641 110.699 269.866 111.114 269.935 111.616C269.969 111.927 269.935 112.428 269.589 114.054L269.277 115.593C268.948 117.08 268.637 118.463 268.325 119.76C268.204 120.244 268.049 120.59 267.841 120.815C267.754 120.918 267.581 121.074 267.097 121.385C266.82 121.558 266.422 122.025 266.024 123.183C265.937 123.443 265.903 123.598 265.903 123.668C265.903 123.789 265.903 124.083 266.647 124.325C267.46 124.584 268.931 124.705 271.336 124.601C272.478 124.549 273.344 124.29 273.897 123.823C274.071 123.685 274.209 123.408 274.295 123.011C274.382 122.613 274.399 122.25 274.33 121.921C274.278 121.662 274.226 121.593 274.226 121.593L273.724 121.437C273.396 121.299 272.755 120.884 272.998 119.708L273.309 117.961C273.326 117.806 273.378 117.633 273.413 117.46C273.534 116.993 273.915 116.699 274.417 116.699C275.091 116.786 275.49 117.218 275.559 117.858V118.722C275.559 119.293 275.766 119.449 276.13 119.518C276.908 119.518 277.756 117.875 278.362 115.057C278.501 114.365 278.57 113.777 278.57 113.31C278.57 112.93 278.518 112.601 278.397 112.359C278.276 112.082 278.206 112.082 278.154 112.1C277.151 112.169 276.874 112.549 276.753 112.843L276.493 113.535C276.216 114.071 275.818 114.33 275.334 114.382C275.022 114.417 274.884 114.382 274.728 114.348L274.538 114.278L274.399 114.123C274.174 113.846 274.226 113.587 274.33 113.103L274.624 111.667C274.745 111.08 274.867 110.699 275.005 110.44C275.334 109.869 275.888 109.592 276.562 109.662L278.033 109.8C278.5 109.835 278.95 110.059 279.297 110.44C279.418 110.578 279.608 110.855 279.885 111.304C280.231 111.875 280.594 112.169 281.027 112.238C281.217 112.255 281.494 112.238 281.823 111.84C282.1 111.512 282.273 111.114 282.394 110.63C282.463 110.336 282.498 109.973 282.515 109.592C282.532 109.177 282.515 108.797 282.429 108.417C282.221 107.362 281.806 107.31 281.615 107.293C281.304 107.345 280.871 107.396 280.456 107.431C279.331 107.535 278.033 107.587 276.58 107.587C276.234 107.587 275.836 107.587 275.368 107.569L271.406 107.535C269.641 107.552 269.243 108.244 269.104 108.918L269.156 108.814ZM274.417 120.123L274.676 120.209H274.711C274.607 120.106 274.52 119.967 274.451 119.846V119.933C274.451 119.933 274.417 120.071 274.417 120.106V120.123ZM276.441 111.028C276.441 111.028 276.355 111.045 276.32 111.114C276.32 111.114 276.285 111.166 276.268 111.27C276.372 111.183 276.493 111.114 276.614 111.045H276.51C276.51 111.045 276.459 111.045 276.441 111.045V111.028Z" fill="#3A3A3A"/>
<path d="M282.238 114.866C282.533 113.621 283.467 112.67 285.059 111.996C286.184 111.529 287.43 111.304 288.779 111.304C290.129 111.304 291.289 111.598 292.188 112.203C293.036 112.791 293.469 113.587 293.469 114.59C293.469 114.884 293.434 115.195 293.382 115.523L292.327 120.4C292.31 120.521 292.344 120.572 292.483 120.59C292.604 120.607 292.742 120.642 292.881 120.676C293.019 120.711 293.123 120.832 293.227 121.022C293.348 121.299 293.331 121.696 293.192 122.198C293.054 122.63 292.881 122.993 292.673 123.287C292.102 124.065 291.254 124.636 290.129 125.016C289.575 125.207 289.004 125.31 288.416 125.328C287.793 125.258 287.343 125.068 287.066 124.74C286.962 124.567 286.789 124.342 286.564 124.083C286.322 124.238 285.959 124.446 285.474 124.722C285.267 124.843 284.99 124.947 284.661 125.034C284.246 125.155 283.83 125.224 283.415 125.224C282.792 125.224 282.204 125.085 281.685 124.826C280.767 124.359 280.231 123.616 280.041 122.613C279.833 121.385 280.162 120.244 280.992 119.189C281.823 118.134 282.948 117.391 284.315 116.959C284.955 116.768 285.544 116.682 286.08 116.682C286.478 116.682 286.893 116.716 287.309 116.803L287.499 116.059C287.534 115.938 287.585 115.748 287.655 115.506C287.741 115.022 287.776 114.711 287.724 114.555C287.689 114.382 287.585 114.278 287.447 114.261C287.205 114.33 286.928 114.52 286.616 114.832C286.374 115.074 286.132 115.316 285.907 115.558C285.163 116.301 284.419 116.716 283.709 116.803C283.277 116.786 282.931 116.63 282.636 116.336C282.342 116.059 282.204 115.714 282.204 115.299C282.204 115.178 282.221 115.039 282.256 114.901L282.238 114.866ZM286.686 119.466C286.201 119.466 285.89 119.881 285.734 120.607C285.647 120.987 285.63 121.264 285.682 121.402C285.734 121.558 285.82 121.627 285.959 121.627C286.166 121.627 286.391 121.022 286.634 119.829C286.703 119.518 286.703 119.466 286.686 119.466Z" fill="#FFD245"/>
<path d="M288.416 126.036C287.499 125.95 286.876 125.673 286.478 125.189C286.443 125.12 286.391 125.051 286.357 124.999C286.184 125.103 286.011 125.207 285.786 125.328C285.509 125.466 285.197 125.587 284.834 125.708C283.623 126.071 282.377 125.967 281.338 125.466C280.214 124.895 279.539 123.979 279.314 122.734C279.072 121.299 279.452 119.95 280.421 118.74C280.958 118.048 281.615 117.477 282.377 117.028C282.29 116.959 282.204 116.889 282.117 116.82C281.685 116.405 281.477 115.869 281.477 115.264C281.477 115.074 281.512 114.884 281.546 114.693C281.892 113.224 282.982 112.1 284.782 111.339C285.993 110.837 287.343 110.595 288.779 110.595C290.302 110.595 291.583 110.941 292.586 111.616C293.625 112.324 294.178 113.362 294.178 114.59C294.178 114.918 294.144 115.264 294.075 115.662L293.14 120.019C293.365 120.106 293.659 120.296 293.867 120.728C294.057 121.178 294.057 121.714 293.867 122.388C293.694 122.924 293.486 123.356 293.227 123.719C292.569 124.601 291.6 125.276 290.337 125.691C289.731 125.898 289.074 126.019 288.433 126.054L288.416 126.036ZM286.668 123.149L287.066 123.598C287.343 123.91 287.534 124.169 287.655 124.377C287.741 124.463 288.035 124.584 288.468 124.619C288.883 124.601 289.385 124.498 289.887 124.342C290.873 124.013 291.583 123.529 292.085 122.872C292.258 122.647 292.396 122.353 292.5 122.008C292.621 121.541 292.569 121.351 292.552 121.316C292.552 121.351 292.465 121.333 292.362 121.316L292.05 121.264L291.739 120.936C291.6 120.745 291.566 120.503 291.617 120.244L292.673 115.385C292.725 115.108 292.742 114.849 292.742 114.59C292.742 113.829 292.431 113.258 291.773 112.791C290.233 111.754 287.378 111.823 285.319 112.653C283.951 113.224 283.155 114.002 282.93 115.022V115.057C282.93 115.057 282.896 115.195 282.896 115.264C282.896 115.489 282.965 115.644 283.121 115.8C283.277 115.956 283.484 116.042 283.727 116.059C284.159 116.008 284.747 115.662 285.37 115.022C285.595 114.78 285.838 114.538 286.08 114.296C286.495 113.898 286.859 113.673 287.205 113.552L287.378 113.5L287.551 113.535C287.983 113.604 288.312 113.933 288.399 114.382C288.468 114.642 288.433 115.022 288.33 115.627L287.828 117.616L287.17 117.495C286.322 117.339 285.509 117.356 284.505 117.65C283.259 118.031 282.29 118.688 281.529 119.639C280.819 120.538 280.542 121.472 280.716 122.509C280.854 123.304 281.252 123.84 281.961 124.204C282.671 124.549 283.536 124.636 284.401 124.359C284.678 124.273 284.903 124.186 285.076 124.1C285.526 123.84 285.89 123.633 286.132 123.477L286.651 123.166L286.668 123.149ZM286.443 115.973C286.547 115.973 286.651 115.973 286.755 115.99L286.876 115.523C286.738 115.662 286.582 115.817 286.443 115.973ZM285.993 122.353C285.509 122.353 285.145 122.077 284.99 121.644C284.886 121.385 284.903 121.022 285.024 120.469C285.336 119.016 286.184 118.774 286.651 118.774H286.98L287.205 119.016C287.447 119.293 287.395 119.535 287.309 119.985C286.997 121.523 286.703 122.319 285.976 122.353H285.993Z" fill="#3A3A3A"/>
<path d="M304.25 106.826C304.769 106.826 305.132 106.895 305.34 107.085C305.6 107.293 305.669 107.656 305.548 108.157L303.212 119.155C303.108 119.639 303.108 120.019 303.194 120.278C303.315 120.572 303.488 121.005 303.696 121.61C303.731 121.766 303.748 121.973 303.748 122.232C303.748 122.492 303.731 122.803 303.696 123.166C303.436 124.048 302.692 124.653 301.429 124.982C300.72 125.172 299.802 125.258 298.643 125.258C296.93 125.258 295.753 124.964 295.096 124.359C294.801 124.1 294.663 123.737 294.715 123.253C295.061 122.181 295.511 121.437 296.047 121.039C296.376 120.815 296.601 120.607 296.74 120.417C296.878 120.227 296.982 119.95 297.068 119.57L298.505 112.826C298.539 112.567 298.505 112.376 298.366 112.238C298.332 112.221 298.176 112.1 297.864 111.892C297.466 111.633 297.259 111.218 297.259 110.63C297.259 110.474 297.259 110.284 297.276 110.111C297.657 109.005 298.73 108.123 300.495 107.5C301.775 107.068 303.021 106.826 304.25 106.809V106.826Z" fill="#FFD245"/>
<path d="M298.643 125.985C296.74 125.985 295.424 125.622 294.611 124.895C294.282 124.619 293.902 124.083 294.005 123.183C294.438 121.817 294.957 120.97 295.615 120.469C295.978 120.227 296.117 120.071 296.151 120.002C296.186 119.95 296.272 119.812 296.342 119.431L297.761 112.705C297.761 112.705 297.588 112.584 297.449 112.497C297.034 112.238 296.515 111.685 296.515 110.63C296.515 110.457 296.515 110.267 296.532 110.059L296.567 109.886C297.016 108.555 298.245 107.535 300.218 106.826C301.568 106.359 302.9 106.117 304.198 106.082C304.925 106.082 305.444 106.221 305.79 106.532C306.084 106.774 306.43 107.31 306.205 108.278L303.869 119.258C303.765 119.76 303.817 119.967 303.834 120.019C303.938 120.261 304.111 120.711 304.336 121.333C304.406 121.627 304.44 121.887 304.44 122.198C304.44 122.474 304.423 122.82 304.388 123.218C304.042 124.48 303.108 125.258 301.585 125.656C300.823 125.864 299.837 125.967 298.626 125.967L298.643 125.985ZM297.968 110.284C297.968 110.422 297.968 110.543 297.968 110.665C297.968 111.149 298.159 111.27 298.245 111.322C298.626 111.564 298.816 111.702 298.851 111.737C299.076 111.961 299.301 112.342 299.214 112.947L297.778 119.742C297.674 120.227 297.536 120.59 297.328 120.866C297.155 121.108 296.861 121.368 296.463 121.644C296.065 121.938 295.701 122.578 295.407 123.495C295.407 123.702 295.511 123.806 295.58 123.841C295.944 124.169 296.774 124.567 298.66 124.567C299.751 124.567 300.616 124.48 301.256 124.307C302.277 124.031 302.848 123.598 303.038 122.976C303.038 122.768 303.073 122.474 303.073 122.232C303.073 121.99 303.056 121.852 303.038 121.766C302.848 121.264 302.692 120.832 302.571 120.555C302.416 120.106 302.416 119.621 302.537 118.999L304.873 108.002C304.942 107.708 304.89 107.621 304.89 107.621C304.873 107.621 304.734 107.517 304.284 107.535C303.125 107.552 301.948 107.777 300.737 108.192C299.249 108.728 298.332 109.42 298.003 110.284H297.968Z" fill="#3A3A3A"/>
<path d="M315.152 106.826C315.671 106.826 316.034 106.895 316.242 107.085C316.501 107.293 316.571 107.656 316.449 108.157L314.113 119.155C314.01 119.639 314.01 120.019 314.096 120.279C314.217 120.572 314.39 121.005 314.598 121.61C314.633 121.766 314.65 121.973 314.65 122.232C314.65 122.492 314.633 122.803 314.598 123.166C314.338 124.048 313.594 124.653 312.331 124.982C311.622 125.172 310.704 125.258 309.545 125.258C307.832 125.258 306.655 124.964 305.998 124.359C305.703 124.1 305.565 123.737 305.617 123.253C305.963 122.181 306.413 121.437 306.949 121.039C307.278 120.815 307.503 120.607 307.641 120.417C307.78 120.227 307.884 119.95 307.97 119.57L309.407 112.826C309.441 112.567 309.407 112.376 309.268 112.238C309.233 112.221 309.078 112.1 308.766 111.892C308.368 111.633 308.161 111.218 308.161 110.63C308.161 110.474 308.161 110.284 308.178 110.111C308.559 109.005 309.631 108.123 311.397 107.5C312.677 107.068 313.923 106.826 315.152 106.809V106.826Z" fill="#FFD245"/>
<path d="M309.562 125.985C307.659 125.985 306.344 125.622 305.53 124.895C305.202 124.619 304.821 124.083 304.925 123.183C305.357 121.817 305.876 120.97 306.534 120.469C306.897 120.227 307.036 120.071 307.07 120.002C307.105 119.95 307.192 119.812 307.261 119.431L308.68 112.705C308.68 112.705 308.524 112.601 308.368 112.515C307.936 112.255 307.434 111.702 307.434 110.647C307.434 110.474 307.434 110.284 307.451 110.077L307.486 109.904C307.936 108.572 309.164 107.552 311.137 106.843C312.487 106.376 313.819 106.134 315.117 106.1C315.844 106.1 316.363 106.238 316.709 106.549C317.003 106.791 317.349 107.327 317.124 108.296L314.788 119.276C314.684 119.777 314.736 119.985 314.754 120.036C314.858 120.278 315.031 120.728 315.256 121.351C315.325 121.645 315.359 121.904 315.359 122.215C315.359 122.492 315.342 122.838 315.29 123.235C314.944 124.48 314.01 125.258 312.487 125.673C311.725 125.881 310.756 125.985 309.528 125.985H309.562ZM308.887 110.284C308.887 110.422 308.887 110.543 308.887 110.665C308.887 111.149 309.078 111.27 309.147 111.322C309.528 111.564 309.735 111.719 309.77 111.737C309.995 111.961 310.203 112.324 310.116 112.947L308.68 119.742C308.576 120.227 308.437 120.59 308.23 120.866C308.057 121.108 307.763 121.368 307.365 121.645C306.967 121.938 306.603 122.578 306.309 123.495C306.309 123.702 306.413 123.789 306.482 123.841C306.845 124.169 307.676 124.567 309.562 124.567C310.652 124.567 311.518 124.48 312.158 124.307C313.179 124.031 313.75 123.598 313.94 122.976C313.94 122.768 313.975 122.474 313.975 122.232C313.975 121.99 313.958 121.852 313.94 121.783C313.75 121.281 313.594 120.849 313.473 120.572C313.317 120.123 313.317 119.639 313.439 119.016L315.775 108.019C315.844 107.725 315.792 107.639 315.792 107.639C315.775 107.639 315.654 107.535 315.186 107.552C314.027 107.569 312.85 107.794 311.639 108.209C310.151 108.745 309.234 109.437 308.905 110.301L308.887 110.284Z" fill="#3A3A3A"/>
<path d="M267.651 136.394C268.014 134.976 269.139 133.8 271.008 132.884C272.669 132.071 274.244 131.656 275.732 131.656C276.32 131.656 276.978 131.76 277.687 131.967C278.76 132.296 279.504 132.832 279.971 133.593C280.421 134.354 280.525 135.253 280.283 136.308C279.902 137.933 278.725 139.524 276.77 141.063C276.303 141.426 275.905 141.858 275.541 142.359C275.438 142.515 275.386 142.671 275.351 142.792V142.826C275.351 142.826 275.351 142.878 275.386 142.878C275.455 142.878 275.818 142.671 276.51 142.273C276.995 141.979 277.324 141.789 277.48 141.702C277.912 141.478 278.258 141.339 278.518 141.287C279.21 141.391 279.539 141.945 279.521 142.982C279.521 143.241 279.487 143.501 279.435 143.795C279.141 145.143 278.552 146.336 277.687 147.409C276.787 148.498 275.957 148.999 275.23 148.93C274.451 148.844 274.019 148.757 273.915 148.671C273.88 148.619 273.759 148.584 273.534 148.584L268.793 148.325C268.793 148.325 268.447 148.325 267.997 148.36C266.976 148.429 266.232 148.221 265.764 147.754C265.591 147.581 265.505 147.322 265.505 147.011C265.505 146.561 265.712 146.077 266.145 145.576C266.474 145.195 266.872 144.763 267.322 144.262L268.845 142.671C270.09 141.374 271.025 140.233 271.648 139.282C272.011 138.763 272.236 138.279 272.34 137.864C272.461 137.414 272.288 137.189 271.838 137.189C271.665 137.189 271.267 137.414 270.662 137.864C270.056 138.313 269.519 138.538 269.07 138.538C268.671 138.538 268.325 138.365 268.031 137.985C267.754 137.656 267.616 137.259 267.616 136.774C267.616 136.653 267.616 136.515 267.651 136.359V136.394Z" fill="#FFD245"/>
<path d="M275.386 149.674C275.386 149.674 275.23 149.674 275.161 149.674C274.174 149.57 273.794 149.466 273.569 149.328L268.758 149.051C268.758 149.051 268.481 149.051 268.049 149.086C266.837 149.172 265.903 148.896 265.28 148.29C264.951 147.962 264.795 147.547 264.795 147.028C264.795 146.406 265.072 145.766 265.609 145.143C265.937 144.763 266.335 144.313 266.82 143.812L268.343 142.204C269.554 140.942 270.454 139.835 271.06 138.919C271.25 138.659 271.388 138.4 271.492 138.192C271.388 138.261 271.25 138.365 271.077 138.486C270.333 139.04 269.675 139.299 269.052 139.299C268.62 139.299 267.997 139.161 267.46 138.486C267.097 138.054 266.889 137.483 266.889 136.844C266.889 136.688 266.889 136.515 266.941 136.308V136.256C267.374 134.63 268.62 133.299 270.696 132.279C272.461 131.414 274.157 130.982 275.732 130.982C276.389 130.982 277.116 131.103 277.895 131.328C279.123 131.708 280.041 132.365 280.577 133.264C281.131 134.181 281.269 135.27 280.975 136.515C280.629 137.933 279.764 139.316 278.379 140.648C278.379 140.648 278.379 140.648 278.397 140.648H278.518H278.639C279.262 140.734 280.283 141.166 280.248 143.068C280.248 143.345 280.214 143.674 280.144 144.002C279.816 145.455 279.193 146.769 278.258 147.91C277.255 149.12 276.32 149.708 275.386 149.708V149.674ZM274.313 148.083C274.399 148.1 274.659 148.169 275.316 148.239C275.784 148.29 276.441 147.841 277.151 146.976C277.929 146.008 278.483 144.884 278.743 143.674C278.795 143.432 278.812 143.224 278.812 143.017C278.812 142.308 278.674 142.117 278.535 142.066C278.397 142.117 278.172 142.204 277.826 142.377C277.67 142.463 277.358 142.636 276.874 142.93C275.663 143.639 275.593 143.639 275.386 143.639H275.022L274.555 143.034L274.642 142.688C274.676 142.481 274.78 142.256 274.918 142.014C275.334 141.426 275.784 140.942 276.303 140.527C278.12 139.091 279.21 137.639 279.556 136.169C279.764 135.305 279.695 134.578 279.331 133.99C278.968 133.385 278.345 132.953 277.445 132.676C276.805 132.486 276.216 132.382 275.697 132.382C274.33 132.382 272.842 132.763 271.284 133.524C269.623 134.336 268.62 135.357 268.308 136.55C268.308 136.653 268.291 136.74 268.291 136.809C268.291 137.12 268.377 137.362 268.533 137.553C268.741 137.812 268.896 137.846 269.018 137.846C269.191 137.846 269.554 137.777 270.194 137.31C271.111 136.636 271.492 136.498 271.804 136.498C272.375 136.498 272.669 136.74 272.825 136.93C272.98 137.138 273.136 137.483 272.998 138.054C272.876 138.555 272.617 139.091 272.202 139.697C271.561 140.665 270.592 141.841 269.329 143.155L267.806 144.746C267.356 145.23 266.976 145.662 266.647 146.043C266.335 146.406 266.18 146.734 266.18 147.011C266.18 147.132 266.197 147.218 266.232 147.253C266.543 147.564 267.114 147.703 267.927 147.651C268.412 147.616 268.689 147.616 268.758 147.616L273.534 147.875C273.776 147.875 274.053 147.927 274.261 148.083H274.313Z" fill="#3A3A3A"/>
<path d="M282.896 136.394C283.259 134.976 284.384 133.8 286.253 132.884C287.914 132.071 289.489 131.656 290.977 131.656C291.565 131.656 292.223 131.76 292.933 131.967C294.005 132.296 294.75 132.832 295.217 133.593C295.667 134.354 295.771 135.253 295.528 136.308C295.148 137.933 293.971 139.524 292.015 141.063C291.548 141.426 291.15 141.858 290.787 142.359C290.683 142.515 290.631 142.671 290.596 142.792V142.826C290.596 142.826 290.596 142.878 290.631 142.878C290.7 142.878 291.064 142.671 291.756 142.273C292.24 141.979 292.569 141.789 292.725 141.702C293.158 141.478 293.504 141.339 293.763 141.287C294.455 141.391 294.784 141.945 294.767 142.982C294.767 143.241 294.732 143.501 294.68 143.795C294.386 145.143 293.798 146.336 292.933 147.409C292.033 148.498 291.202 148.999 290.475 148.93C289.697 148.844 289.264 148.757 289.16 148.671C289.126 148.619 289.004 148.584 288.779 148.584L284.038 148.325C284.038 148.325 283.692 148.325 283.242 148.36C282.221 148.429 281.477 148.221 281.01 147.754C280.837 147.581 280.75 147.322 280.75 147.011C280.75 146.561 280.958 146.077 281.39 145.576C281.719 145.195 282.117 144.763 282.567 144.262L284.09 142.671C285.336 141.374 286.27 140.233 286.893 139.282C287.257 138.763 287.482 138.279 287.585 137.864C287.707 137.414 287.534 137.189 287.084 137.189C286.911 137.189 286.513 137.414 285.907 137.864C285.301 138.313 284.765 138.538 284.315 138.538C283.917 138.538 283.571 138.365 283.277 137.985C283 137.656 282.861 137.259 282.861 136.774C282.861 136.653 282.861 136.515 282.896 136.359V136.394Z" fill="#FFD245"/>
<path d="M290.631 149.674C290.631 149.674 290.475 149.674 290.406 149.674C289.42 149.57 289.039 149.466 288.814 149.328L284.003 149.051C284.003 149.051 283.727 149.051 283.294 149.086C282.083 149.172 281.148 148.896 280.525 148.29C280.196 147.962 280.041 147.547 280.041 147.028C280.041 146.406 280.317 145.766 280.854 145.143C281.183 144.763 281.581 144.313 282.065 143.812L283.588 142.204C284.799 140.942 285.699 139.835 286.305 138.919C286.495 138.659 286.634 138.4 286.737 138.192C286.634 138.261 286.495 138.365 286.322 138.486C285.578 139.04 284.921 139.299 284.298 139.299C283.865 139.299 283.242 139.161 282.706 138.486C282.342 138.054 282.134 137.483 282.134 136.844C282.134 136.688 282.134 136.515 282.186 136.308V136.256C282.619 134.63 283.882 133.299 285.942 132.279C287.707 131.414 289.402 130.982 290.977 130.982C291.635 130.982 292.361 131.103 293.14 131.328C294.369 131.708 295.286 132.365 295.822 133.264C296.376 134.181 296.515 135.27 296.22 136.515C295.874 137.933 295.009 139.316 293.625 140.648C293.625 140.648 293.625 140.648 293.642 140.648H293.763H293.884C294.507 140.734 295.528 141.166 295.494 143.068C295.494 143.362 295.459 143.674 295.39 144.019C295.061 145.455 294.438 146.769 293.504 147.927C292.5 149.138 291.565 149.726 290.631 149.726V149.674ZM289.558 148.083C289.645 148.1 289.904 148.169 290.562 148.239C291.029 148.273 291.687 147.841 292.396 146.976C293.175 146.008 293.729 144.884 293.988 143.674C294.04 143.449 294.057 143.224 294.057 143.017C294.057 142.308 293.919 142.117 293.78 142.066C293.642 142.117 293.417 142.204 293.071 142.377C292.915 142.463 292.604 142.636 292.119 142.93C290.977 143.604 290.839 143.639 290.631 143.639H290.268L289.8 143.034L289.887 142.688C289.922 142.481 290.025 142.256 290.164 142.014C290.579 141.426 291.029 140.942 291.548 140.527C293.365 139.091 294.455 137.639 294.801 136.169C295.009 135.305 294.94 134.578 294.576 133.99C294.213 133.385 293.59 132.953 292.69 132.676C292.05 132.486 291.462 132.382 290.943 132.382C289.575 132.382 288.087 132.763 286.53 133.524C284.869 134.336 283.865 135.357 283.553 136.55C283.553 136.653 283.536 136.74 283.536 136.809C283.536 137.12 283.623 137.362 283.778 137.553C283.986 137.812 284.142 137.846 284.263 137.846C284.436 137.846 284.799 137.777 285.44 137.31C286.357 136.636 286.738 136.498 287.049 136.498C287.62 136.498 287.914 136.74 288.07 136.93C288.226 137.138 288.381 137.483 288.243 138.054C288.122 138.555 287.862 139.091 287.447 139.697C286.807 140.665 285.838 141.841 284.574 143.155L283.052 144.746C282.602 145.23 282.204 145.662 281.892 146.043C281.581 146.406 281.425 146.734 281.425 147.011C281.425 147.132 281.442 147.218 281.477 147.253C281.788 147.564 282.377 147.703 283.173 147.651C283.657 147.616 283.934 147.616 284.003 147.616L288.779 147.875C289.022 147.875 289.299 147.927 289.506 148.083H289.558Z" fill="#3A3A3A"/>
</g>
<defs>
<clipPath id="clip0_1_28">
<rect width="368" height="191" fill="white"/>
</clipPath>
</defs>
</svg>
